<svg version="1.0" xmlns="http://www.w3.org/2000/svg" width="1365.333" height="910.667" viewBox="0 0 1024 683"><path d="M0 172.7c0 172.7 0 172.7 2.7 176.7 5.3 7.5 11 12.6 14.2 12.6 4.8 0 6.1.9 6.1 4.4 0 1.8.3 3.6.7 4 .4.3.8 2.7.9 5.2.1 3.1.7 4.9 2 5.9 1.1.8 1.6 1.5 1.1 1.5-.4 0 .7 1.5 2.5 3.4 3.6 3.8 5.2 3.8 3.8.1-.6-1.6-.6-2.5 0-2.5s1-.7 1-1.6c0-.8.5-1.2 1.1-.9.6.4.8 1.4.5 2.2-.3.8-.2 1.2.2.9 1.1-.7 4.1 7.8 4.8 13.9.3 2.7 1.5 8.1 2.6 11.9 1.1 3.8 1.6 7.2 1.1 7.6-1.6 1.5-11.8 3.9-14.5 3.3-1.6-.3-3.6.1-5 1.1-3.6 2.5-4.4 2-5.8-4.2-.7-3.1-1.8-7.5-2.5-9.7-.7-2.2-2.5-9.4-3.9-16-1.5-6.6-3.5-14.9-4.4-18.5-.9-3.6-1.7-8.1-1.7-10 0-2.8-.4-3.5-2-3.5-2.6 0-2.5 1.4 2.5 36.7 2.2 15.2 4 28.3 4 29.2 0 .9-1.2 1.8-2.7 2.2-1.6.3-4.3 1-6.1 1.6-3.4 1-3.4 1-1.3 3.2 2.7 2.8 2.6 4.2-.1 5.7-2.1 1.1-2.1 1.1.2 2.9 2.3 1.7 2.3 1.7.1 2.3-1.1.3-2.1 1.2-2.1 2 0 2.4 7 1.4 9.2-1.3 1.5-1.8 2.1-2 3.3-1 1.1.9 1.5.9 1.5.1 0-.6-1-1.5-2.2-2-1.3-.5-3.1-1.8-4-2.9-2.3-2.8-.8-3.8 7-5.1 7.1-1.1 10.9-.3 15.8 3.4C37.7 443 40 447 36 447c-1.1 0-2 .4-2 .8 0 .5-3.3 3.2-7.4 6-9.2 6.5-11.3 10.9-5 10.9 1.7 0 2.8-.7 3.4-2.1.4-1.2 1.5-2.8 2.4-3.5.9-.7 1.6-2.1 1.6-3.1 0-1.5 9.3-9 11.2-9 .4 0 3.2-1.6 6.2-3.5s5.9-3.5 6.5-3.5c.5 0 1.6-.6 2.3-1.4.8-.7 2.7-2.1 4.3-3 7-3.9 12-6.9 12.5-7.5.3-.3 2.3-1.6 4.5-2.7 2.2-1.2 10-5.8 17.4-10.3 20.5-12.4 21.8-11.9 36.4 13.2 1.1 1.8 2.7 4.1 3.7 5.2 1 1.1 3.7 5.8 6.1 10.3 5.9 11.2 12.7 19.6 16.2 20 1.5.2 2.7.8 2.7 1.3s.9.9 2.1.9c1.1 0 2.7.6 3.5 1.4 1.2 1.3 1.1 1.7-1.1 3.4-4.3 3.4-3.7 4.8 5.9 13.9 1.3 1.3 2.6 2.3 3 2.3.4 0 1.4.7 2.2 1.5.9.8 2.6 1.5 4 1.5 3 0 3.1 1.5.2 2.5-4.2 1.3-4.7 1.3-5.9-.1-.6-.8-1.7-1.4-2.4-1.4s-1.6-.7-1.9-1.6c-.4-.9-.9-1.4-1.2-1.1-1.1 1.1 9.8 20.4 20.6 36.7 5.8 8.7 16 25.7 16 26.7 0 .3 3.5 6.4 7.7 13.6 7.1 12 7.8 13.7 8.1 19.5.7 9.8-1.8 16.1-8.9 23.2-3.3 3.3-5.9 6.4-5.9 7 0 .5-.4 1-.9 1-.6 0-2.1 1.1-3.5 2.4-1.4 1.2-4 2.7-5.8 3.3-2.3.6-3.2 1.4-3 2.6.2.9-.2 1.7-.8 1.7-.6 0-1 .6-.9 1.2.4 3-.2 4.9-1.3 4.7-.7 0-2.3.2-3.6.6-1.8.6-2 1-1 2.2.9 1.1.9 1.6-.2 2.3-1.1.7-1.1 1.1-.1 2.3.9 1.2.9 1.6-.1 2-.7.3-.1.6 1.4.6 1.7.1 2.9.8 3.3 2.1.6 2 3.5 2.8 3.5 1 0-.6.6-1 1.4-1 .8 0 1.7-.8 1.9-1.7.4-1.5.6-1.5 1.2.4.9 2.8 2.1 2.9 6.4.2 2.5-1.5 4.3-1.9 6.5-1.4 6.7 1.5 9.3 1.5 15.1.4 3.3-.7 6.8-1.9 7.8-2.7.9-.8 2-1.3 2.2-1 .8.8-1.6 5.8-2.8 5.8-.5 0-.3.7.4 1.7 1.1 1.3 1.2 1.7.1 2.1-1 .3-.9.8.4 2.3 1 1.1 1.4 2.7 1.1 3.9-.3 1.3.1 2.9 1.1 3.9.9 1 4 4.7 6.7 8.1 2.8 3.5 7.3 8.7 10.1 11.6 5 5.4 5 5.4 163.7 5.4 87.3 0 158.7-.4 158.7-.8 0-.7 10.5-4.2 12.7-4.2.4 0-.4 1-1.7 2.3-2.5 2.2-2.5 2.2 2.4 2.5 4.4.3 5 0 7.9-3.3 2.6-3 4.1-3.7 7.7-4.1 2.5-.2 3.8-.1 3 .2-1.5.7-7 6-7 6.8 0 .2 2 .4 4.4.4 4 0 4.9-.4 9.6-5.4 2.8-3 5.9-5.4 6.8-5.4.9 0 2.8-.3 4.1-.7 2.2-.6 2 0-2.3 5.5-4.7 6.2-4.7 6.2 1.2 6.2s5.9 0 9.6-5.9c4.4-7.2 8.4-10.7 13.6-12.1 2.2-.6 7.3-2.8 11.3-5 4.5-2.3 7.8-3.5 8.6-3 1 .5 1 .9.2 1.5-.7.3-.9 1.5-.6 2.5.5 1.6-.4 2-6.5 3-5.7 1-8 1.9-12.1 5.2-2.8 2.1-5.3 4.6-5.6 5.5-.4.9-.8 1.1-1.2.4-.4-.6-1.8 0-3.6 1.5-1.7 1.4-2.4 2.3-1.7 1.9.6-.3 1.2 0 1.2.7 0 .9.3.9 1-.2.7-1 1-1.1 1-.2 0 .7-1.1 1.7-2.5 2.2-1.4.5-2.5 1.2-2.5 1.5 0 .3 88 .5 195.5.5 195.5 0 195.5 0 195.5-70.8 0-60.7-.2-71.1-1.5-72.8-1.8-2.4-1.9-3.5-.2-3.2.9.2 1.3-54 1.5-268C1024 0 1024 0 939.8.1c-68.9.1-85 .3-88.3 1.5-4 1.4-4 1.4 2.4.9 5.3-.4 6.2-.3 5.7 1-.3.9 0 1.5.8 1.5s1.6-.5 1.8-1.1c.5-1.6 9.8-.2 9.5 1.4-.1.6.8 1.6 2.1 2.2 1.2.5 2 1.6 1.7 2.3-.3.7.3 2.4 1.1 3.8.9 1.3 1.4 2.7 1.1 3.1-1.3 1.3 4.8 3.4 8 2.8 1.8-.3 4-.1 5 .4s2.6 1.2 3.7 1.5c1.4.5 1.7 1.2 1.2 3.1-.5 1.8-.3 2.3.7 1.9.7-.2 2.3.5 3.5 1.7 1.3 1.1 3 1.8 3.8 1.5.8-.3 1.4 0 1.4.8s-.6 1.6-1.4 1.9c-1.2.5-1.2 1.3-.4 4.1.6 2 1.7 3.6 2.5 3.6.7 0 1.2.3 1.2.7-.3 1.8.2 2.7.9 1.6.5-.8 1.4-.7 3.2.4 1.4.8 1.7 1.2.8.9-1-.3-1.8-.1-1.8.4 0 .6.5 1 1.2 1 .6 0 .9.3.5.6-.3.3 1.1 2.1 3.1 4s3.7 3.7 3.7 4.1c.1.5 1.5 2.3 3.3 4.2 1.8 1.9 3 3.6 2.7 3.9-.3.3.1 1.2.9 2.1.8.9 1.5 1.9 1.5 2.3.1.5.1.9.2 1 0 .2.2 2.1.4 4.3.4 5.4.7 6.6 2.8 9.5 2.1 3 2.2 6 .3 6-2.3 0-2.4 3.4-.1 4.5 1.1.6 2.5 2 3.1 3.3.6 1.2 1.8 3 2.7 4 1.1 1.2 1.5 2.9 1.1 5.6-.2 2.2.1 4.4.7 5.2 1 1.2.8 1.3-.6.8-1.3-.5-1.6-.4-1.1.5 1.2 1.9 1.6 7 .5 7.6-.6.4-.5 1.3.1 2.5 1.3 2.5 1.3 5.1 0 3-1.7-2.6-1.1.1.7 3.2 1.2 2 1.4 3.2.7 3.5-1.1.4-.2 9.2 1.5 14.3.6 1.8.4 2.9-.6 3.9-1.1 1-1.1 1.6-.2 2.7.8 1 .8 1.4 0 1.4-.7 0-.8.8-.1 2.6 1.4 3.6 1.2 4.7-.6 4-1.3-.5-1.5-.2-.9 2.1.4 1.6.7 3.6.7 4.5 0 .9.6 2.2 1.4 2.9 1.6 1.3 1.9 3.4.4 2.4-1.1-.7-1.4.8-.3 1.9.4.4.8 1.7 1 3 .3 2 0 2.3-2.4 1.9-2.6-.4-2.6-.3-1 1 .9.8 1.7 2.6 1.7 3.9 0 1.4.7 3.1 1.6 3.9 1.3 1.1 1.3 1.3 0 2.1-1.2.7-1.4 2.5-1 9.1.2 4.5.4 9.1.5 10.2 0 1.1-.1 3.4-.3 5.1-.3 2.9-.5 3.1-2.3 2.1-1.9-1-1.9-.9-.5.9.8 1 2.1 2.3 2.8 2.7.6.4 1.2 1.3 1.2 1.8 0 .6-.4.8-.8.5-.4-.2-.8.3-.9 1.2 0 .9-.4 4.2-1 7.2-.5 3-.8 8.1-.8 11.2.1 4-.3 5.9-1.3 6.3-.7.3-1.1.8-.9 1.2.4.7 0 4.9-1.7 18.3-.3 2-1.2 4.9-2 6.5-.9 1.7-1.6 4-1.6 5.2 0 2.9-1 2.9-6.3.1-7.8-4-21-2.2-29.7 4.1-7.8 5.7-14.9 11.7-14.9 12.6-.1.6-2.1 1.7-4.5 2.4-5 1.4-7.1 3.4-8.1 7.3-.4 1.6-1.4 2.8-2.2 2.8-.8 0-1.1.4-.8 1 .3.5-.3 1-1.4 1-1.4 0-2.1.6-2.1 2 0 1.3-1.2 2.8-3 3.8-1.7.9-2.8 2.3-2.5 2.9.5 1.5-4.4 9.2-5.9 9.4-.6.1-1.5.1-1.9 0-.5-.1-.6.3-.2.9.4.6.2 1.7-.4 2.3-.5.7-1 2.2-.9 3.2 0 2.5-1 8.7-2.4 14-.5 2.2-1 5.4-1 7.2 0 1.8-.4 3-.9 2.7-.5-.3-.9-.1-.9.5 0 .5-.3 1.8-.7 2.8-.6 1.7-.6 1.7 1.4 0 2-1.8 4.1-.9 2.9 1.2-.8 1.2-4.6 2.1-4.6 1 0-1.6-2.8-1-3.6.8-.4 1-.6 2.1-.6 2.5.1.5-.2.8-.7.8-1.4 0-1.9-2.3-.9-4.2.7-1.4.4-1.8-1.2-1.8-1.2 0-2.4.9-2.9 2.2-.5 1.5-1 1.8-1.5.9-.6-.9-1.3-.8-2.7.5-1.1.9-2.1 1.5-2.4 1.2-.8-.8 1.9-5.8 3.2-5.8.7 0 1.1-1.2 1-2.7-.2-1.9.6-3.2 2.8-4.7 1.9-1.3 2.9-2.8 2.7-3.9-.2-.9.4-2 1.2-2.3 1.8-.7 4.4-5.8 4.8-9.4.2-1.8-.2-2.5-1.7-2.8-1.4-.2-1.6-.1-.7.6 1.6 1.1.6 5.9-1.7 8.4-3 3.1-4.1 4.7-4.1 5.7 0 1.1-2.6 2.2-3.4 1.4-.3-.4-.1-1.2.5-2 .9-.9.8-1.3 0-1.3-.6 0-1.1-.9-1.1-2s-.4-2-1-2c-.5 0-1-.7-1-1.5 0-2.2 1.7-1.8 2.3.5.9 3.5 2.3 2.1 1.9-1.9-.3-2.9-.8-3.8-1.8-3.4-1.7.6-1.8-.1-.3-2.8.8-1.6 1.3-1.8 2.5-.8 1 .8 1.4.8 1.4 0 0-.6-.4-1.1-1-1.1-.5 0-1-1.2-1-2.6 0-2-.4-2.4-1.9-1.9-1.1.3-2.3 0-2.7-.6-.5-.8-.3-1 .7-.4.8.5.7 0-.3-1.2-1.9-2-2.4-7.8-.9-8.7.5-.3 1.1.4 1.4 1.6 1.1 3.9 2.1 1 1.8-5-.1-3.1-.8-6-1.4-6.5-.9-.5-.8-1.1.3-2 1.5-1.2 2-10 .7-11.4-.4-.3-.7-1.5-.7-2.5s-.5-1.8-1.1-1.8c-.7 0-.8 1.1-.3 3.2.8 3.6.7 8.7-.2 13.1-.5 2.2-1 2.8-2.5 2.4-1-.3-1.9 0-1.9.6 0 .8-.3.8-1.1 0-.9-.9-.8-2.2.4-5.1 1.1-2.8 1.3-4.8.7-6.8-.4-1.6-.9-2.5-1-1.9-.1.5-.5.1-1-1-.7-1.6-.9-1.2-.8 1.7.1 2.1-.1 4-.5 4.4-.4.4-.7-.2-.7-1.3s-.7-2.6-1.5-3.3c-.8-.7-1.5-2.8-1.5-4.6 0-1.9-.3-3.4-.7-3.4-.5 0-.9-1.8-1-4.1 0-2.5-1.1-5.5-2.8-8.1-2.7-4.1-2.7-4.1-.3-3.5 1.8.5 2.5.2 2.5-.8 0-.8-.4-1.5-.9-1.5-.4 0-.8-.8-.8-1.8s-.4-2.2-.9-2.7c-1.5-1.6-1.8-6-.4-5.8 1.6.4-.1-4.4-2.6-7.2-1-1.1-2.1-2.8-2.4-3.7-.3-1-1.8-2-3.2-2.4-1.4-.3-2.5-1-2.5-1.5s-.6-.9-1.2-.9c-.7 0-2.6-1.9-4.3-4.3-1.6-2.3-2.2-3.7-1.4-3 .9.8 2.6 1 4.2.5 2.5-.7 2.6-.8 1.2-3.2-2.5-4.4-2.8-5.1-2.1-5.8.4-.3 1.1 0 1.6.8s1.3 1.1 1.7.6c.4-.5.2-1.1-.5-1.3-.6-.3-1.2-1.2-1.2-2.1-.1-2.6-2.7-5.5-4.5-4.9-.8.4-1.5.1-1.5-.5s-.2-.9-.5-.6c-.8.7 1.6 5.8 2.7 5.8.4 0 .8.7.8 1.5 0 1.8-1.2 1.9-2.8.3-.7-.7-1.2-.8-1.2-.3 0 .4-.9 0-2-1-1.9-1.7-1.8-4.1.1-3 1.2.8-.9-4.6-2.6-6.5-.7-.8-1.6-3.1-2-5-.4-1.9-1.4-5-2.2-6.7-1.5-3.3-1.2-6.3.7-6.3.5 0 1 .9 1 2.1 0 1.1.9 3.3 1.9 4.8 1.2 1.7 1.8 3.6 1.4 4.9-.3 1.3.3 3.1 1.6 4.8 2.1 2.7 2.1 2.7 1.4-.6-.4-2.4-.3-3.1.5-2.6.7.4 1.2.2 1.2-.3 0-.6-.5-1.1-1.1-1.1-.5 0-.7-.4-.4-1 .3-.5-.1-2-.9-3.2-2.3-3.2-2-4.2.6-1.8 3.2 3 4.3 2.4 1.6-.9-6.1-7.7-7.3-10.1-4.7-10.1.6 0 .9.7.5 1.5-.3.8 0 1.5.6 1.5s2 .7 3 1.7c1 .9 2.1 1.3 2.5.9 1.2-1.1.4-12.8-.9-14.2-1.5-1.4-.8-2.2 1.3-1.7 2 .6 2.1.3 1.7-3.8-.3-2.4-.8-5.3-1.3-6.4-.4-1.1-.4-1.7 0-1.2.5.4 1.7 0 2.7-1 1.9-1.7 2.6-.5.7 1.4-.8.8-.8 1.3 0 1.7.6.4 1.1 0 1.1-.8 0-.9.5-1.6 1-1.6 1.4 0 1.3-3.7-.2-4.2-.6-.2-1.3-2-1.4-3.9-.2-1.9-.8-4.7-1.3-6.2-.9-2.2-.8-2.9.4-3.3.8-.4 1.5-1 1.5-1.6 0-.5-.4-.6-1-.3-.5.3-.7 0-.4-.8.3-.9 1.3-1.3 2.5-1 2.5.7 2.4-.5-.3-2.7-1.3-1-2-2.1-1.6-2.5.4-.4 1.9.5 3.4 1.9 1.8 1.6 3.1 2.2 3.5 1.4 1.1-1.7 2.9.1 2.9 2.8 0 1.7.5 2.4 2 2.4 1.1 0 2-.5 2-1.1 0-.6.6-.9 1.4-.6 2 .8 5.6-4.5 4.5-6.5-.5-.9-.5-1.9-.1-2.2.5-.3 1.5.6 2.2 1.9 1.5 2.7 3.6 3.5 2.6.9-.3-.9-.6-2.1-.6-2.7 0-.7-1-1.7-2.2-2.2-1.6-.7-2.4-2-2.6-4.5-.4-3.5-.4-3.5 1.9-1.5 2.2 2 2.2 2 1.6-1.8-.6-3.9-.6-3.9 1.3-1.6 2 2.2 2 2.2 2-.3 0-1.4.9-3.3 2-4.3s2-1.3 2-.7c0 .7.7 1.2 1.7 1.2 1.4 0 1.4-.2-.2-2-1-1.1-2.2-1.7-2.6-1.4-.5.3-.9-.2-.9-1 0-.9-.5-1.6-1.1-1.6-.5 0-.8.4-.5.9.4.5.2 2-.3 3.3-.6 1.2-1 1.7-1 1-.1-.6-.7-1.1-1.3-1-.8.2-1.2-.6-1-2 .2-1.2-.2-2.2-.7-2.2-.6 0-1.1.8-1.1 1.7 0 1.4-.3 1.4-2-.5-1.1-1.2-2-2.8-2-3.7 0-.8-.4-1.5-1-1.5-1.5 0-1.2 2.6.5 4 2.2 1.9 1.8 3.7-1 4.2-1.4.3-2.5.1-2.5-.5 0-.5-1.4-.7-3.1-.5-2.5.4-3.3.1-3.7-1.4-.2-1-1.3-1.8-2.5-1.8-2.2 0-6.7-4.4-6.7-6.4 0-.6.4-.4 1 .4.5.8 1.1 1.2 1.5.9.3-.3-.4-1.6-1.5-2.9-1.4-1.7-1.9-3.3-1.6-6.4.6-7.2 1.8-11.4 3.2-12 .8-.3 1.4-1.2 1.4-2 0-1 .6-1.3 1.5-1 .9.4 1.5 0 1.5-1 0-.9.5-1.6 1.1-1.6.6 0 .9-.9.6-2-.3-1.1-.1-2 .4-2s.9.5.9 1.1c0 .5.5.7 1.1.4.6-.4.8-1.4.5-2.2-.4-.8.4-2.3 1.6-3.4 2.2-1.8 2.2-1.8.3-1.9-2.7 0-3.5.7-6.8 5.7-1.5 2.4-3.3 4.3-4 4.3-.7 0-2.1-1.4-3-3-1-1.7-2.7-3-3.8-3-2.2 0-2.4-1.1-.7-2.8.7-.7.8-1.2.4-1.2-.5 0-1.5.8-2.2 1.7-1.1 1.5-1.3 1.6-1.4.3 0-.9.6-2.2 1.2-2.8 1-1 1-1.5-.1-2.1-.7-.5-1-1.4-.7-2 .4-.6.3-1.1-.3-1.1-.5 0-1.3.4-1.6 1-1.2 1.9-2.3 1-2.9-2.5-.5-2.3-1.2-3.5-2.1-3.3-.8.2-2.1-.6-2.9-1.7-1.5-1.9-1.5-1.9-1.7 1-.1 1.6-.1 3.7 0 4.5.1 1-.5.7-1.9-.9-1.1-1.3-2-2.9-2-3.6 0-.7-.7-1.6-1.6-1.9-1.2-.4-1.5-.2-1.1.9.5 1.2.1 1.2-2.8-.2-3.3-1.6-5.2-4.4-4.1-6.1.7-1.2-.7-2.9-3.1-3.6-2.6-.8-3.3 1.1-.8 2 .8.4 1.5 1.5 1.5 2.5s.5 1.9 1.2 1.9c.9 0 .9.3 0 1.2-.7.7-1.2 2.2-1.2 3.5 0 3.3-1.9 2.8-2.7-.7-.3-1.7-.9-3-1.4-3-.5 0-.9-.8-.9-1.8 0-1.4-.2-1.4-.9-.3-.5.8-.7 2-.4 2.8.3.7-.2 1.3-1.1 1.3-1.7 0-2.4-2-3.6-10.3-.5-3.4-.8-4.2-.9-2.2-.1 2.7-.3 2.8-1.5 1.2-.7-.9-2.1-1.7-3-1.7-.9 0-1.6-.7-1.6-1.5s.8-1.5 1.7-1.5c.9 0 1.4-.3 1-.6-1.3-1.3-5.8.6-5.5 2.4.3 2-.9 4.2-2.4 4.2-.7 0-.7-.4 0-1.3.5-.6.8-3.6.5-6.5-.5-4.3-.9-5.2-2.5-5.2-1 0-2.1-.7-2.4-1.5-.8-1.9-3.4-.1-3.5 2.4 0 1-.2 1.1-.6.3-.2-.6-.9-1.2-1.5-1.2s-.8.7-.4 1.5c.3.8-.2 1.9-1.2 2.4-1.5.9-1.5 1 .3 1.1 1.1.1 1.4.4.8.7-.7.2-1.3 1.3-1.3 2.4 0 2.3-1.3 2.5-3 .4-.7-.9-2-1.3-2.8-1-.9.3-1.9 0-2.4-.7-.5-.9-.8-.7-.8.7-.1 2-.1 2-1.3 0-.6-1.1-1.2-2.3-1.2-2.7 0-.3-1.2-1.6-2.8-2.8-1.9-1.5-2.7-1.7-2.7-.8 0 2.1 2 3.7 3.9 3.1 1.1-.4 1-.1-.4 1-1.5 1.1-2.2 1.2-2.7.4-.6-.9-.8-.9-.8 0 0 .6.4 1.5 1 1.8.5.3 1.5 1.6 2.1 2.8 1.2 2.1 1.1 2.1-.8.4-2.4-2.1-3.7-2.2-2.9-.1.4 1 .1 1.4-.6 1.2-.8-.3-1.4-2.6-1.6-5.7-.3-4.6-.5-5.1-2.2-4.6-1.5.5-1.8.3-1.4-.9.6-1.7-1.2-3.9-3.6-4.4-.8-.2-2.3-1.1-3.2-1.9-1-.9-1.8-1.1-1.8-.5 0 .6.4 1.3.9 1.6.5.3.8 1.4.6 2.4-.1.9 0 1.1.2.4.3-.6.9-1.2 1.4-1.2 1.8 0 3.9 2.8 3.3 4.3-.3.8-.1 1.8.4 2.1.6.4.7 2.1.1 4.6-.9 4.2-.3 9 1.1 9 1.2 0 2.3-3.7 1.5-5-.3-.5 0-1 .8-1 1.9 0 8.7 6.3 8.7 8-.1 1-.9.5-2.5-1.3-1.3-1.5-2.6-2.7-2.9-2.7-.8 0 1.5 5 3.8 8.4 1.9 2.8 1.9 2.8-.2 1.7-1.2-.6-2.6-2-3.2-3.2-1.3-2.3-3.1-1.6-2.4.9.4 1.3.2 1.3-.8-.2-4.1-6.1-9.2-8.9-8.1-4.4.6 2.2.6 2.2-1.5-.2-2-2.3-2.2-2.3-2-.5.1 1.1 0 3.1-.1 4.5-.2 2.5-.2 2.5-1.6 0-.8-1.4-1.4-3.7-1.5-5.1 0-1.4-.9-3.6-2-4.9-1.1-1.3-2-3-2-3.9 0-.9-.3-2.7-.6-4.1-.3-1.5.4-.8 1.7 1.8 2.7 5.3 3.5 4.9 1.5-.9-1.1-3.1-1.2-4.5-.4-5 1.3-.8-1.5-5.9-3.3-5.9-.6 0-.8.4-.5.8 1.1 1.9-6.6.6-8-1.3-.8-1-1.4-1.3-1.4-.6 0 .7 1 2.7 2.3 4.4 1.3 1.8 3.1 5.7 4.1 8.8 1.2 3.6 2.5 5.8 3.9 6.5 1.6.7 2.2 1.8 2.3 4.5.1 2 .4 4.1.7 4.7.4.6-.3.9-1.6.8-1.8-.1-2.2-.6-1.9-2.3.3-1.7-1.1-4-4.9-8.5-3-3.4-5.3-6.9-5.1-7.7.2-1.7-8.1-7.7-8.6-6.1-.2.5-1.3.5-2.8 0-1.3-.5-2.4-.6-2.4-.1s.9 1.1 2.1 1.4c1.2.3 1.8 1 1.4 1.6-.3.7.2 1.1 1.4 1.1 2.7 0 9.2 5.8 8.9 7.9-.2 1 .3 1.5 1.3 1.3 1.1-.1 1.8.7 2.2 2.5.7 3.8.4 3.9-2.8.8-3.1-3.2-4.7-2.5-1.8.8 1.9 2.1 1.9 2.3.3 3.8-1.5 1.4-2 1.4-3.6.2-1.5-1.1-1.6-1.5-.5-2.2.9-.6 1-1 .2-1.6-.7-.3-.9-1.5-.6-2.4.6-1.9-2.8-10.5-3.8-9.5-.7.8-6.7-2.7-6.2-3.6.2-.4-1.3-.4-3.3 0-4 .7-9.5-.6-8.6-2.1.3-.5 0-.9-.6-.9s-.8-.5-.5-1c.3-.6.2-1-.4-1-.5 0-1.2-1-1.4-2.3-.3-1.7-.5-1.5-.6.8-.2 7.3 1.4 8.7 10 8.7 3.8-.1 5.2.3 6.2 1.9.6 1 2.2 1.9 3.4 1.9 1.7 0 2.4.7 2.8 2.7.3 1.6 1 4 1.4 5.5.7 2.1.6 2.8-.4 2.8-.8 0-1.9-.8-2.4-1.8-.9-1.5-1-1.5-1.1 0 0 .9.6 1.8 1.3 2.1.6.2.9.8.5 1.2-.4.4-3.5-2.2-7-5.9-5.1-5.3-6.7-6.4-8.5-6-1.3.4-2.3.9-2.3 1.3.1 1.4 2.8 4 3.5 3.3.5-.4.5-.1.1.5-.4.7-.4 1.9.1 2.5.4.7.8 2.6.8 4.1 0 2.2-.4 2.7-1.8 2.3-1.6-.4-1.8 0-1.3 2 .4 1.3.2 2.4-.3 2.4s-1.1-1.3-1.3-2.9c-.2-1.7-.1-2.8.4-2.5.4.3.8.2.8-.3 0-1.3-5.3-6-7.8-6.7-1.2-.4-2.9-2.1-3.7-3.7-1.6-2.9-2.5-3.7-2.5-1.9 0 .5 1.6 2.5 3.5 4.5 2.8 2.7 3.2 3.5 1.8 3.5-1.6 0-1.6.2.2 1.8 2.4 2 5 5.2 4.2 5.2-.3 0-2.4-1.8-4.7-4-4-3.9-7.6-5.7-5-2.5.7.9 1 1.9.6 2.3-1.1 1.1-7.8-6.7-7.2-8.4.3-.8-.1-1.4-1-1.4-1 0-1.4-.6-1-1.5.3-.8.2-3-.1-4.8-.7-3.2-.7-3.2-1.8 1.3-1 4.1-.9 4.8 1.2 7.9 1.3 1.9 2.3 4 2.3 4.8 0 2.1 2.8 4.5 4.2 3.7.7-.4 1-.4.6.1-.4.4.2 1.6 1.4 2.7 1.2 1 1.9 2 1.6 2.3-.2.2-2-.9-3.9-2.5s-4.1-2.9-4.9-3c-2.6 0-3.9-2.1-3.4-5 .4-1.6 0-3.1-.9-3.8-1.2-1-1.3-.8-.9 1.3.3 1.7 0 2.5-1 2.5-.8 0-1.5-1.2-1.6-2.7-.3-3.3-1.1-4.2-2.2-2.3-.7 1.1-1 .8-1-1.3 0-2.8 0-2.8-2.2-.7-1.9 1.7-2.3 1.8-3.1.5-.9-1.7-2.7-2-2.7-.6 0 .5.7 1.7 1.6 2.5.8.9 1.3 2.6 1.1 3.8-.4 2.3-.4 2.3-1.2 0-.4-1.2-1.1-2.2-1.6-2.2-.6 0-1.4 1-1.8 2.2-.7 1.7-.4 2.8 1 4.4 1.1 1.1 1.6 2.3 1.3 2.7-.4.4-.1 1.4.7 2.4 1.1 1.3 1.1 1.5.1.9-.8-.5-2.1-.1-3.3 1-1.5 1.4-2.4 1.6-3.6.8-2.8-1.8-2.9-3.7-.2-2.9 2.4.7 2.4.7-.1-2.1-1.4-1.6-2.7-3.1-2.9-3.4-.2-.3 0 .6.3 2 .7 2.4.6 2.4-.8.6-.9-1.1-1.6-2.5-1.6-3.2 0-.6-.7-1.7-1.5-2.4-1.7-1.4-2.1-4.5-.5-3.5.6.4 1-.5 1-2s-.4-2.4-1-2c-.5.3-1-.1-1-1s.4-1.4.9-1c.6.3 1.5-.4 2.1-1.6 1-1.7.9-2-.2-1.5-.7.3-2.1.9-3.1 1.2-2.1.8-3.2 4.5-2.3 8.2.4 1.5.7 3.6.7 4.7 0 1 .5 2.5 1.1 3.2.7.9.7 1.3 0 1.3-2.5 0-5.2-5.3-5.2-10.2 0-4 .6-5.6 3.2-8.9 3.4-4.2 5.4-5 6-2.2.2 1.3.8.8 2-1.7 1.6-3.3 6.8-9 8.3-9 .4 0 .4 1.2 0 2.7-.7 2.8-.7 2.8 1.5.1 1.1-1.5 3.3-3.3 4.8-4 1.5-.7 2.7-2 2.8-2.8.2-3.3.5-3.8 2.3-4.3 1.4-.3 1.8-.1 1.4.9-.4 1 0 1.2 1.1.8 1.2-.4 1.5-.2 1.1.9-.5 1.2.4 1.4 4.7 1.2 2.9-.1 6.3-.7 7.6-1.4 1.2-.7 3.2-.9 4.2-.6 1.1.4 3-.1 4.2-.9 1.2-.9 3.2-1.6 4.4-1.6 1.2 0 2.5-.7 2.8-1.6.4-1.1 1.3-1.4 2.8-1.1 1.3.4 3.7-.3 6.3-1.9 2.3-1.3 4.8-2.4 5.6-2.4.9 0 3.1-1.2 5-2.6 3-2.3 3.1-2.6.9-2-1.4.4-3.9 1.1-5.6 1.5-1.6.5-4.2 1.6-5.6 2.5-1.6 1-2.9 1.3-3.2.7-.6-.9-8.5 1.6-9.6 3-.3.4-1.8 1.1-3.3 1.4-2.2.6-3.1.2-4.8-1.9-1.1-1.4-2.7-2.6-3.5-2.6-.8 0-1.4-.4-1.4-.9 0-.6 1.6-.7 3.5-.4 2.6.4 3.6.2 4.1-1.1.4-1.1 1-1.3 1.8-.7 1.3 1.1 3.4 1 5.4-.2.6-.5 1.7-.5 2.2-.2.6.4 1.5-.7 2.1-2.4.9-2.6 1.4-2.9 2.9-2.1 3 1.6 3.5 1.1 1-1-1.3-1.1-1.8-2-1.1-2s.9-.5.6-1.1c-.4-.6-1.4-.8-2.2-.5-.8.4-1.1.2-.7-.5.9-1.5-1.4-2.9-4.7-2.9-2.3 0-2.5.3-2.1 3.1.3 2.4.1 3-.9 2.7-.8-.2-1.5-1.7-1.7-3.1-.2-1.5-.6-2.7-1-2.7-1.5 0-3.3 1.7-3 2.7.6 2.1-4.8.8-5.6-1.3C629.1.2 583.4 0 314.5 0 0 0 0 0 0 172.7zm630.2-169c.9.3 1.9 1.1 2.2 1.9.4 1.2.2 1.2-1.4.4-1.4-.8-2-.8-2 0 0 1.9-2.3.5-3.2-1.9-.7-2-.6-2.2.9-1.6 1 .4 2.6.9 3.5 1.2zm-19.6 19.4c-2 1.7-4 2.7-4.7 2.4-.6-.4-2.1-.3-3.2.3-1.2.6-3.5 1.3-5 1.7-1.8.4-2.7 1.1-2.4 1.9.3.7-.3 2-1.3 2.8-1.6 1.5-1.7 1.3-1.6-2.8.1-3.7.4-4.3 1.8-3.8 1.4.4 1.6.1 1.1-1.3-.6-1.7-.5-1.7 1.4-.1 2.6 2.4 3.3 2.3 3.3-.7 0-2.2.2-2.4 1.9-1.3 1.5.9 2.3.9 3.5-.1.8-.7 2-1 2.6-.6.5.3 1 .1 1-.4 0-.6 1.1-1.1 2.5-1.1 2.5 0 2.5 0-.9 3.1zm-20.3 2.8c.6 2.4-3.6 6.7-5.4 5.5-.9-.5-.6-1 .9-1.5 2.2-.8 2.1-3.5-.2-5.1-.6-.4.1-.8 1.5-.8 1.8 0 2.8.6 3.2 1.9zm-14.3.2c0 .5.4.8.8.5 1-.6.9 6.5-.1 8.1-.4.7 0 1.6 1 2.2 1.4.8 1.5 1 .3 1-.8 0-2.5-1.6-3.7-3.5-2.5-3.8-2.9-5.4-1.3-5.4.6 0 1-.9 1-2s.5-2 1-2c.6 0 1 .5 1 1.1zm6.5 4.7c-.2.7-.1 1 .4.7 1.5-.8 2.5 1.5 1.2 2.8-.8.8-1.1.8-1.1-.1 0-.6-.7-.9-1.5-.6-1 .4-1.5 0-1.5-1.4 0-1.2-.4-2.4-1-2.7-.6-.4-.5-1.1.3-2 1-1.2 1.4-1.1 2.5.3.7.9 1 2.2.7 3zM570 37.5c-1.1 1.4-1.1 1.8-.1 2.5.9.5 1 1 .2 1.4-.6.4-1.5.5-2 .2s-1.5.1-2.2 1c-1.2 1.4-1.4 1.4-1.9-.2-1-2.7 0-5.6 1.6-5 .8.3 1.4-.1 1.4-.8 0-1.7 2.2-2.7 3.4-1.5.5.5.4 1.5-.4 2.4zm-8.4 7c-.3.8-.1 2.8.4 4.3.9 2.4.8 2.5-.3 1-.8-1-1.7-1.5-2-1.1-1.2 1.1-.7-1.7.5-3.7 1.5-2.4 2.3-2.6 1.4-.5zm19.8 1.2c-1.2 2.4-.8 19 .4 20.6.5.7 1.2 2.9 1.5 5 .5 3.3.4 3.7-.9 2.6-.8-.7-1.2-2-.9-3 .4-1.1 0-2.6-1-3.5-1.5-1.5-1.5-1.4-.9 1 .4 1.7.2 2.6-.5 2.6-.9 0-.9.6 0 2.2 1.2 2.2 1.1 2.2-1.2.7-1.3-.8-3.7-1.3-5.2-1.1-2.7.3-2.8.4-1 1.7 1.6 1.3 1.6 1.4.1 1.5-.9 0-2-.5-2.4-1.1-.8-1.4-1.5-14.9-.8-17.2 1.2-3.8 2.4-1.3 2.4 4.9 0 7.5 1.8 10.7 4.5 8 .8-.8 1.5-2.5 1.5-3.8 0-1.3.5-2.9 1.2-3.6.9-.9.9-1.5 0-2.4-.9-.9-1.2-.7-1.2 1.2 0 1.3-.3 2-.7 1.7-.3-.4-1.2-.2-2 .4-2.2 1.9-1.6-7.5.8-12.4 2.4-4.8 4.8-7.7 6.2-7.7.5 0 .6.7.1 1.7zm-368 3.4c7.7 1.1 15.7 2.4 17.6 2.9 1.9.5 8.7 1.4 15 2 6.3.6 17.6 1.9 25 3 15 2.1 42.1 5.5 60.5 7.6 6.6.7 15.2 1.7 19 2.3 11 1.5 23.1 2.9 49 5.6 20.6 2.2 53.1 6.1 99.6 12 10.1 1.2 18.9 3.3 15.1 3.4-.9.1-1 .6-.4 1.7 1.3 2.4.2 6.6-1.9 7.1-1.1.3-1.9.9-1.9 1.4 0 1.4-4.2 1.1-29.6-2.1-62.5-8-166-20.8-186.4-23.1-5.2-.5-11.1-1.2-13-1.4-3-.4-13-1.5-35.5-4-20.8-2.4-31-3.7-37.3-5.1-5.8-1.2-7.6-1.3-8.8-.3-.8.6-1.2 1.4-.9 1.7.3.3 0 1.1-.5 1.7-.6.7-1.3 9.2-1.7 18.8-.6 17.6-.6 17.6 1.8 18.1 1.3.3 14.1 2.2 28.4 4.1 14.3 2 35.5 4.9 47 6.5 11.6 1.6 44 6.1 72 10 133.4 18.3 162.6 22.6 155.9 22.9-1.2.1-19.6-2.4-41-5.4-21.4-3-58.5-8.2-82.4-11.5-23.9-3.3-52.9-7.4-64.5-9-11.5-1.6-40.6-5.7-64.5-9s-44.5-6.3-45.7-6.5c-1.4-.3-3 .2-4.1 1.3-1.7 1.7-1.9 4.5-2.6 28.8-1.7 69.6-4.7 146.8-5.7 148-.5.7-.9 4.5-.7 8.6.3 8.5-2.9 7 25.8 12.3 10.2 1.8 23.5 4.6 29.5 6 33.8 8.1 149 29.9 187.5 35.5 6.3.9 18.8 3.2 59.9 11.1 5.2 1.1 5.3 1.1 4.8 4.2-.3 1.8.4 9 1.6 16.1 1.9 12 2 13.9.8 27.5-.8 8.5-1.8 14.9-2.5 15.3-.7.5-.7.8 0 .8 1.5 0 3.4 13.3 2.1 14.2-1.3.8-24.7 6.5-30.3 7.4-3.3.5-4.2.3-4.8-1.1-.3-1-.1-2.4.5-3.1.8-1 .8-1.4 0-1.4-1.8 0-1.2-2 .7-2.1 1.3 0 1.4-.2.2-.6-3.1-1.2-4.2-2.5-2.8-3.5 1-.6 1-1-.2-1.8-.8-.5-2.2-1-3-1-1.3 0-1.3.1 0 1 1.1.7.6.9-1.8.7-4.9-.5-4.8-1.4.3-2.1 2.5-.4 4.5-1.1 4.5-1.7 0-.5 1.4-.9 3-.9 1.7 0 3.8-.4 4.8-.9.9-.6 3-1.3 4.7-1.6 2.7-.6 2.8-.8 1.3-1.9-1.4-1-1.5-1.5-.5-2.5s.5-1.2-2.3-1c-9.1.7-15.4-3.7-6.6-4.6 1.1-.1 2.4-.3 2.9-.4.4 0 .7-1.6.7-3.5 0-2.6 1-4.6 4-8.1 5.8-6.8 6.2-7.7 4.1-11.1-3.6-5.8-10.2-12.3-13.7-13.4-5.2-1.8-9.2-.6-16.3 5-3.5 2.7-7.5 5.2-9 5.5-1.5.3-7.8 4.7-14.1 9.7-18.8 15-17.9 14.6-35 14.6-14.5 0-14.5 0-14.2-9.5.2-5.1 0-10.6-.4-12.1-.6-2.3-.9-1.6-1.5 3.8-1.1 9.1-1.5 11.5-2.3 12.8-.3.6.1 1.7.9 2.5.8.9 1.4 2.4 1.3 3.4-.3 3.7.2 7.4 1 6.9.4-.2 1.3.4 2 1.4.7 1.2.8 2.1.2 2.5-.6.3-1-.2-1-1.2 0-1.4-.4-1.2-1.8.9-.9 1.5-2.3 2.7-3.1 2.5-1.8-.2-3.2 4.6-3.5 11.8-.2 4.8-.3 5-3.1 4.8-4.4-.3-5-1.7-5-11.4.1-8.2-.1-8.9-2-9-1.6-.1-1.5-.3.8-1.2 2.3-.9 2.7-1.6 2.4-4.5-.5-4.1-1.2-4.6-10-6.2-5.8-1.1-6.8-1.6-7.3-3.6-.4-1.3-1.3-2.4-2.3-2.4-2.5.1-10.3 2.4-12.8 3.8-1.2.7-6 1.9-10.5 2.7-9.7 1.7-45.3 10.1-48.5 11.5-1.5.6-2 1.5-1.6 2.9.4 1.7.1 2.1-1.7 2.1-1.3 0-3.7.9-5.4 1.9-1.7 1.1-10.7 3.8-20.1 6-9.3 2.2-22.1 5.3-28.2 6.8-6.2 1.4-11.8 3-12.4 3.4-1 .6 1.3 10.5 4.9 20.9.3.8-1.3-.1-3.4-2.1-2.1-2-6-5-8.5-6.7-2.6-1.8-6.6-5.1-8.9-7.5-4.2-4.3-4.2-4.3-4.7-20.4-.5-15.9-.5-16.1 1.9-18.4 3.8-3.9 5-7.1 5-13.7 0-4 .5-6.8 1.4-7.7.8-.7 6.7-2.6 13.1-4 6.5-1.5 15.4-3.8 19.8-5.1 4.4-1.4 9.8-3 12-3.6 2.2-.6 4.4-1.5 4.9-2 .6-.4 1.8-.8 2.8-.8 2.2 0 2.3-1.3.3-3-.8-.7-1.3-1.6-1-2 .3-.4-.2-2.4-1-4.4-.9-2-1.3-4.1-1-4.5.2-.5-.5-1.1-1.6-1.4-1.6-.4-1.9-1.1-1.4-2.6s.2-2.1-.9-2.1c-.9 0-1.6-.8-1.7-1.8 0-1-.3-1.2-.6-.5-.8 2.1-4 1.4-5.7-1.2-.9-1.4-1.4-3-1.1-3.5.3-.5-.5-1.4-1.7-2.1-2.5-1.3-9-6.8-15.4-13-3.7-3.6-4.2-4.5-3.8-7.9.3-3.3 0-3.9-2.4-4.8-1.5-.6-4.3-1.4-6.2-1.8-1.9-.3-5.4-1.5-7.7-2.5-2.3-1.1-5.1-1.9-6.2-1.9-1.1 0-2.3-.5-2.7-1.1-.3-.6-.1-19.6.5-42.2 2.7-100.1 4.1-154.4 4.6-184.2.3-17.6.9-33 1.2-34.3.5-2 1.1-2.2 7-2.2 3.6 0 12.9.9 20.7 2.1zm337.2 6.4c2.2 2.9 1.6 4.1-.7 1.6-1.1-1.2-2.4-2-2.7-1.8-.4.2-2.1.9-3.9 1.6-4.5 1.8-4.6 4.2-.3 6.2 3.3 1.6 3.4 1.7 1.3 2.5-1.2.5-2.1 1.3-2 1.8.3 1.2-5.1 1.7-5.8.5-.4-.5.5-.9 1.9-.9 3.1 0 3.6-2.9.7-3.7-2.9-.8-3.5-4.5-1-6.6 1.2-.9 3-1.7 4-1.7s1.9-.4 1.9-.8c0-1.5 5.3-.5 6.6 1.3zM652.8 58c3.2 4.4 3.9 10.5 1.2 10.5-1.1 0-1.5-1.1-1.4-4.3 0-2.3-.3-4.2-.7-4.2-.4 0-.9-.8-1.3-1.8-.3-.9-.9-2.3-1.2-3-1.2-2.5.5-1.1 3.4 2.8zm73.2-.5c1.3 1.6 6.7 4.5 8.3 4.5.5 0 .6-.7.3-1.6-.3-.9-.2-1.2.5-.9.6.4.8 1.3.5 2.1-.3.7-.1 1.6.4 1.9.6.4 1 1.1 1 1.7 0 .6-.8.4-1.7-.4-1-.9-3.4-2.3-5.3-3.1-3.5-1.4-8.2-5.7-6.3-5.7.6 0 1.6.7 2.3 1.5zm17.1 1.8c-.1.4-.1 2.4-.1 4.4 0 2.8-.3 3.4-1 2.3-1.3-2.1-1.3-8.3.1-7.8.6.2 1 .7 1 1.1zm-181.4 6.5c-.6 5.1-.1 6.5 2.3 7.5 1.2.4 1.1.6-.3.6-1.4.1-1.7.6-1.1 2.3.9 3 .8 3 2.8 2.2 1.8-.7 2.2-2.4.4-2.4-.6 0-.8-.3-.5-.6.4-.4 1.3-.1 2.2.6 1.6 1.3 2 3.1.8 2.9-2.2-.4-3.2.3-3.5 2.2-.3 2.1-.3 2.1-2.8.1-3-2.3-6.1-12.3-4.1-13 .7-.2.9-1.6.5-3.8-.6-3-.4-3.4 1.6-3.4 2.1 0 2.2.3 1.7 4.8zm-8.6 7.9c1.3 2.6 3.6 5.8 5.1 7.1 3.3 2.8 3.6 4.7.7 3.9-2.4-.6-4.9.1-4.9 1.4 0 .5.7.9 1.6.9.8 0 1.2.5.9 1-.4.7-1.4.6-2.8-.1-2-.9-2.1-.9-.4.5 1.8 1.4 1.8 1.5-.3 3.9s-7.2 3.3-6.9 1.2c0-.4-.5-1.1-1.2-1.6-.7-.4-1.4-1.5-1.5-2.4-.1-.9-1.1-2.3-2.1-3-1-.7-1.5-1.6-1.2-1.9.3-.4 2.7 1 5.3 3 2.6 1.9 5.2 3.4 5.8 3.2.6-.2-1.2-2.1-3.9-4.1-2.8-2-5.3-4.3-5.6-5-.7-1.9 1.6-3.5 3.8-2.6 3.2 1.2 3.4 1.1 2.8-2.5-.4-2.8.9-7.6 2.1-7.6.3 0 1.5 2.1 2.7 4.7zM535 77.1v2.4c0 .3 1.1 2.6 2.5 5.3 1.4 2.6 2.5 5.5 2.5 6.4 0 1 .8 1.8 1.8 1.8 1.3 0 1.4.2.3.9-1.1.7-1 1.1.5 2 1.5.8 1.6 1.1.4 1.2-.8.1 0 .4 1.8.8 3.2.6 3.2.6.4 3.8-1.5 1.8-3.6 3.3-4.7 3.3-1.8.1-1.8.2-.3 1.1 1.6.9 1.6 1.1-.3 3-1.1 1.1-2.5 3.3-3.1 4.9-.9 2.8-1 2.8-4.1 1.5-2.2-.9-3.1-2-2.9-3.2.2-1 .4-2.4.4-3.1.2-1.5 1.1-1.5 2.6 0 1.7 1.7 1.6-1.3 0-3.1-1.1-1.1-1-1.3.4-.8 1.2.4 1.8 0 2-1.6.2-1.7 1.2-2.3 4.3-2.8 2.2-.3 3.2-.7 2.1-.8-2.4-.1-6.9-4.8-5.3-5.4.7-.2.9-.8.4-1.2-.4-.5-1.7-.3-3 .3-1.2.6-2.9 1.2-3.7 1.5-.9.2.1.9 2.3 1.7 4.5 1.7 4.3 2.9-.6 4.6-3.3 1.2-3.8 1.1-4.7-.5-.5-1-2.2-2.2-3.7-2.6-1.8-.4-2.3-.9-1.5-1.4.7-.4 1-1.4.7-2.2-.3-.9.6-2.1 2.2-3.1 2.8-1.7 2.8-1.7-.4-1.8-1.7 0-3.5-.5-3.9-1.2-.5-.8-.1-.9 1.2-.4 1.5.6 1.6.5.7-.5-1.6-1.7.2-4.9 2.7-4.9 1.1 0 2-.5 2-1 0-.6.7-1 1.6-1 1.4 0 1.5-.2.3-1.7-.9-1.1-1-1.4-.2-.9 1.8 1 5.7-1.2 4.5-2.7-.5-.7-1.2-2.1-1.5-3.2-.6-1.7-.4-1.7 1.3.4 1.1 1.3 2 3.2 2 4.2zm-281.6 38.4c25.9 3.6 54.8 7.7 64.1 9 9.4 1.3 25.6 3.6 36 5 10.5 1.4 29.8 4.1 43 6 13.2 1.8 41.1 5.7 62 8.5 20.9 2.9 38.6 5.4 39.4 5.6 1.1.4 1.2.7.3 1.6-.7.7-1.2 1.9-1.2 2.6 0 1 .9.6 2.5-1.2 2.6-2.8 5.1-3.5 4.2-1.1-.4.8-.2 1.7.2 2 1.8 1-.3 4.7-4 7.2-2.2 1.4-3.9 3.1-4 3.7 0 .6-.2 3.6-.2 6.6-.2 5.5-.2 5.5 3.8 6.4 2.2.5 4.1 1.1 4.3 1.2.6.4-2.2 5.4-3 5.4-.5 0-.7.4-.3.9.3.6-1.4 1.3-3.9 1.6-3.1.5-21.3-1.9-65.2-8.5-33.5-5-83.2-12.5-110.4-16.6-27.2-4.1-59.8-9-72.5-10.9-12.6-1.9-27.3-4.1-32.5-5-5.2-.8-10.4-1.5-11.6-1.5-2 0-2.1.6-3.3 37.2-.7 20.5-1.4 45.4-1.6 55.3-.6 27.9-1.7 46.5-2.7 45.9-.5-.4-.7-2.7-.4-5.3.3-2.5.8-16.3 1.1-30.6.3-14.3.8-30.5 1-36 .3-5.5 1-26.4 1.5-46.5s1.3-40.7 1.6-45.8c.5-8.5.8-9.2 2.7-9.2 1.1 0 23.2 2.9 49.1 6.5zm273.6 0c.8.7 2.7 1.5 4.3 1.9 3.9.9 3.3 2.3-1.5 3.8-6.5 1.8-9.1 1.9-8.5.3.3-.7-.3-2.1-1.4-3.1-2.6-2.4-2.4-3.2.9-2.6 2.6.4 2.6.4.7-1.2-1.9-1.6-1.9-1.6 1-1 1.7.4 3.7 1.2 4.5 1.9zm274.6 19.6c0 3.6-.3 4.9-1.4 4.9-.8 0-1.2.6-.8 1.5.3.9 0 1.5-.9 1.5-.8 0-1.5-.5-1.5-1.1 0-.6-1-1.9-2.2-3-2.3-1.8-2.3-1.8-.1-1.9 2 0 2.2-.4 1.6-3.2-.5-2.7-.4-3 1.1-2.5 1 .4 1.9.1 2.3-.9.9-2.5 1.8-.5 1.9 4.7zm6 11.5c-.3 5.8-1.2 6.4-3 1.9-1.7-3.9-1.4-5.5.9-5.5.9 0 1.2-.6.9-1.8-.5-1.3-.4-1.4.4-.4.5.8.9 3.4.8 5.8zM508 161.5c0 1-1 1.5-3 1.5-1.6 0-3-.5-3-1.1 0-.6.9-.8 2-.4s2 .2 2-.4c0-.6.5-1.1 1-1.1.6 0 1 .7 1 1.5zM779.6 220c-.1 4.7-.2 4.9-1.7 2.9-1.6-2.2-1.8-4.6-.5-6.7 1.5-2.4 2.3-1.1 2.2 3.8zm3.4.1c.7 1.1.9 2.4.5 2.7-.7.7-3.5-2.5-3.5-4 0-1.6 1.9-.8 3 1.3zm16.7 29.8c1.6 2.5 1.6 2.6-.3 1.1-1-.8-2.5-2.1-3.2-2.8-.7-.6-1.8-1.2-2.3-1.2-.5 0-.9-.4-.9-1 0-1.7 4.9 1.2 6.7 3.9zm-175.9.4c2.7 1.3 7 2.4 9.7 2.5 3.5.2 5.7 1 8.4 3 2 1.6 5.7 3.8 8.3 5 5.3 2.4 6.4 3.7 4.9 5.6-.7.9-.5 1.6.9 2.6 2 1.4 2.9 3.7 1 2.5-.5-.3-1-.1-1 .4 0 .6 1.9 2.3 4.3 3.7 2.3 1.5 5.1 3.5 6.2 4.4 2.3 2.1 5.4 2.9 5.4 1.5 0-.6-.8-.9-1.7-.7-1.5.2-1.5.1.1-.8 1.3-.8 2.2-.7 3.8.4 1.9 1.3 1.9 1.5.4 2.3-1.4.8-.4 1.8 5.2 5.5 3.7 2.5 8.4 5.2 10.3 6.1 1.9.9 2.8 1.7 2 1.7-.9 0-.5.6 1 1.7 1.4 1 2.5 1.6 2.5 1.3 0-.3 1.5.8 3.2 2.4 4 3.5 16.8 12.3 19.1 13.1 2.4.7 4.4 5.2 2.7 5.9-1.5.5-2.8-2-1.9-3.5.3-.5-.9-.9-2.6-.9-1.7 0-4.7-.7-6.6-1.5-3.5-1.4-3.5-1.4-2.8.8.6 1.9.5 2-1 .8-1.4-1.1-1.6-1.1-1.6.2 0 .9 1 2.3 2.3 3.2 2.1 1.6 2 1.6-2.3.9-2.5-.4-5.2-.7-6-.8-.8-.1-1.8-.5-2.2-1-.4-.6-1.2-.5-2 .1-.7.6-3.1 1.4-5.3 1.7-2.2.3-5.3.9-6.9 1.2-1.9.4-2.6.3-2.2-.5.4-.6.2-1.1-.4-1.1-.7 0-.9-.8-.5-2 .6-1.8.2-2-3.9-2-2.5 0-4.6-.5-4.6-1 0-.6-.5-1-1.1-1-.6 0-.9.6-.6 1.4.9 2.2-7 .8-12.1-2.2-4.5-2.6-8.2-8.2-8.2-12.6 0-3.2-1.4-4-7.7-4.1-6.8-.2-9.7 1.9-9.5 6.9.1 3.7-.3 4.2-2.6 2.8-.7-.5-1-1.6-.6-2.6.6-1.6.3-1.8-3.7-1.1-5.5.9-6 1.2-5.2 3.2.5 1.3.3 1.3-1.5-.2-2-1.8-1.9-4.3.1-5.7.6-.4.4-1.2-.6-2.2-1.4-1.5-1.8-1.4-4.9.1-7.9 3.9-7.8 3.9-7.8 1.8 0-2.1-1.3-1.9-2.8.6-.9 1.4-1 2.4-.3 3.3.7.8.5 1.2-1 1.3-1.8.2-1.9-.3-1.4-6 1-10.3 1.1-17.6.4-17.1-.4.2-1.2-.3-1.8-1-.9-1-.9-1.6-.1-2.1.6-.4.9-1.3.6-2.1-.3-.8.1-1.7 1-2.1.9-.3 1.4-1.5 1.2-3.2-.2-2 .1-2.6 1.5-2.5 1.3.1 1.7-.6 1.6-3.5-.1-2-.3-2.8-.6-1.8-.5 2.1-2.7 1.8-2.9-.4-.2-3-.5-3.4-1.3-2.1-.6 1-1 .7-1.5-1.2-.7-2.8-2.6-3.6-2.6-1.2 0 .8-.4 1.7-.9 2-.5.3-.8-1.2-.7-3.4.1-4 1.2-5 3.3-2.9.9.9 1.9.6 4-.8 2.8-2 8.9-3.5 15.5-3.7 2 0 3.4-.4 3.1-.9-.7-1.2.4-.8 5.5 1.6zm-102.2 9.2c-1.9 1.4-1.8 1.5 1.1 1.5 1.7 0 3.3-.5 3.5-1.1.3-.8 2.1-.4 5.5 1.2 2.8 1.3 4.9 2.7 4.7 3.1-.3.4.2.5 1 .2.9-.3 1.6-.1 1.6.5s1.2 1.7 2.6 2.3c2 1 2.4 1.7 1.9 3.7-.5 2.1-.4 2.3.8 1.2 1-.8 1.7-.9 2.2-.1.3.5 1.7 1 3.1 1 1.3 0 2.4.3 2.4.8 0 .4 1 1.8 2.3 3.2 4.3 4.7 6.9 9.1 6.3 10.6-.3.8-1 1.2-1.6.9-.6-.4-.8-1.1-.5-1.6.8-1.2-1.9-3.9-3.8-3.9-.8 0-1.7-.7-2.1-1.5-.3-.9-1.8-1.5-3.8-1.5-3.3 0-3.3 0 1.2 2.9 2.5 1.5 5.1 2.6 5.9 2.3 1-.4 1.3-.1.9 1-.4.9.5 2.8 2.2 4.6 1.5 1.7 2.5 3.4 2.2 3.7-.3.3-.5 2.1-.4 3.9.2 2.7-.3 3.9-2.5 5.6-2.2 1.7-2.4 2.3-1.3 3 .8.5 1.1 1.2.7 1.7-.4.4-1.5.3-2.4-.3-1.2-.8-2.7-.5-5.7.9-2.3 1.1-6 2.2-8.3 2.5-3.6.4-4.6.1-6.2-1.9-2.2-2.8-1.9-3.8.5-1.8 1.5 1.2 1.7 1.2 1.2-.1-.2-.8-1.5-1.6-2.9-1.8-2.9-.4-5.8-3.9-5.9-6.8 0-3-2.2-3.5-6.4-1.6-2.9 1.4-3.7 2.4-4.2 5.4-.4 2.1-1 3.5-1.5 3.3-.4-.3-.9.5-1.1 1.7-.2 1.2-.9 2.3-1.6 2.6-.7.2-1.2 0-1-.5.3-1.2-2.3-5.7-4-6.7-1.2-.7-.8-1.5 2.2-4.2 2.1-1.9 4.2-3.4 4.7-3.4.6 0 1.6-.6 2.4-1.3 3.3-3.3 15.9-4.3 31-2.4 3.4.4 2.6-2.7-1.5-5.7-2.2-1.7-4-3.5-4-4.2 0-2.4-6.6-3.6-13.4-2.6-7.4 1.2-13.2 3.9-18.6 8.9-4.5 4-5.3 3.8-1.4-.4 4.4-4.8 10.6-8.2 18.1-10 6.3-1.4 8-1.5 12.4-.4 2.7.7 5.3 1 5.6.7.4-.3-.1-.6-1-.6-1 0-2.5-.4-3.5-.9-.9-.5-4.5-1.9-7.9-3.1-3.4-1.2-6.4-2.8-6.7-3.6-.3-.8-1.2-1.4-2.1-1.4-.8 0-1.5-.5-1.5-1 0-.6-.7-1-1.6-1-1 0-1.4-.6-1.1-1.4.6-1.6-2.4-1.7-3.5-.1-.5.6-1.2.5-2-.3-.9-.9-.9-1.2.3-1.3.7-.1-1.1-.9-4.1-1.8-5.5-1.8-5.5-1.8.2-1.7 3.3 0 6.3-.5 7-1.2.7-.7 2.1-1.2 3.3-1.2 2 .1 2 .1.1 1.5zm-306.2 9c2.3.5 2.7.8 1.5 1.6-2.2 1.4-8.9 1.1-8.9-.4 0-1.9 1.1-2.8 2.9-2.3.9.2 2.9.7 4.5 1.1zm467 10.4c1.1 1.7-1.8 3-3.6 1.7-1-.7-1.5-1.6-1.1-1.9.9-1 4.1-.8 4.7.2zm5.1.8c.7 2.3 6.2 8.3 7.5 8.3.5 0 .7-.6.4-1.4-.3-.8 0-1.7.7-2.2.8-.4 1-.3.5.5-.4.6-.1 2.3.8 3.6.9 1.3 1.6 3.7 1.6 5.2-.1 2.8-.1 2.8-2 .4-1.1-1.3-2-2.9-2-3.7 0-.8-.7-1.4-1.5-1.4s-1.9-1-2.6-2.1c-.9-1.8-1.3-1.9-2.1-.8-.8 1.1-.9 1-.5-.3.3-.9-.1-2.2-.8-2.8-.8-.7-1.2-1.6-.9-2.1.3-.5-.2-.9-1.1-.9-.9 0-1.3-.5-1-1 .9-1.5 2.3-1.2 3 .7zm17.4 11.5c.6 1.7.9 3.3.7 3.6-.8.8-2.7-1-2.3-2.1.2-.7 0-2-.5-3s-.5-1.7.1-1.7c.5 0 1.4 1.4 2 3.2zm218.2 0c1.6 1.2 3.6 3.2 4.4 4.4 1.4 2.3 1.7 6.4.3 6.4-.4 0-.8.4-.8 1 0 1.2 2.6 1.4 3.3.2.2-.4.2-.2.1.5-.2.7 1 2.2 2.7 3.3 3.2 2.3 2.9 4.5-.5 3.6-1.8-.4-1.9-.3-.5.7.9.7 1.4 1.8 1.2 2.4-.3.7.3 1.3 1.3 1.3 1.6 0 1.6.2.3 1.2-2.5 2.1-4.9 6.6-4.9 9.2 0 1.3-.5 2.6-1.1 2.8-.6.2-1.2 1.9-1.3 3.8-.1 1.8-.7 3.5-1.4 3.8-.6.2-1.2 1-1.2 1.7s-.7 2.6-1.5 4.2c-.8 1.5-2 4.3-2.7 6-.7 1.8-1.7 3.3-2.1 3.3-.5 0-.6.4-.2 1 .6 1-1.5 5-2.7 5-.6 0 0-17.1.7-17.8.2-.2-1-3-2.6-6.2s-2.9-6.5-2.9-7.3c0-.8-.9-2.2-2-3.2s-1.7-2.1-1.5-2.5c.3-.4-.4-1-1.4-1.3-1.5-.4-1.8-.1-1.3 1.2.5 1.4.3 1.4-1.1.2-2.1-1.7-4.9-.7-4.1 1.4.3.8.3 2.3-.1 3.2-.6 1.7-.7 1.7-2.1-.1-1.3-1.9-1.4-1.8-1.4 1 0 2.1-.3 2.5-.9 1.5-1.1-1.7-4.1-.7-4.1 1.4 0 1.1.6 1.4 2.3 1 2.1-.6 2.4-.3 2.5 3 .2 4.5.8 5.5 3.5 5.5s6.2 1.9 3.7 2c-1.1 0-1 .4.5 1.2 1.8 1.1 1.8 1.2 0 1.8-1.8.6-2.7 2.7-2.6 6.5 0 1.1-.5 2.2-1.1 2.6-1.2.7-5.8-.9-6.9-2.4-.4-.5-1-.4-1.3.2-.4.6-2 1.1-3.7 1.1-2.5 0-2.9.4-2.9 2.6 0 2.5-.2 2.6-3.5 2.1s-4.7.5-2.5 1.8c1.5.9 1.3 5.8-.2 5.3-.8-.3-1.5-2.9-1.8-6.3-.3-3.3-1.1-6-1.8-6.3-.6-.2-1.2-.8-1.2-1.3 0-1.1-8.6-12.9-9.1-12.4-.3.3-.3-5.3 0-6.3.1-.1 0-.3-.1-.5-.1-.1.7-1.2 1.7-2.5 1.7-2 2.1-2.1 3.1-.7 1.6 2.2 3 1.9 5.3-1.4 2.4-3.3 2.9-5.9.9-4.4-1.4 1.1-4.8 1.3-4.8.4 0-.4.9-1.2 2-1.9 1.7-1 2.5-.9 4.5.4 1.4.9 2.8 1.4 3.2 1 .3-.3.2-.6-.4-.6-.6 0-1-1.1-.9-2.4 0-1.3.4-2.2.9-1.9.4.2.7-.5.7-1.6 0-1.2.5-2.1 1.1-2.1.5 0 .7-.5.4-1-.3-.6-.1-1 .5-1 .7 0 2.7-1.6 4.6-3.5 1.8-1.9 3.8-3.5 4.3-3.5s1.2-.9 1.6-1.9c1.2-3.9 9-9.5 17.5-12.5 2.7-1 9.1.4 12.1 2.6zM458 316.5c1.5 1.8.9 4.9-1.1 5.3-1 .2-1.5-.5-1.4-2 0-3.1-1.9-3.5-2.6-.6-.5 2.3-.5 2.3-1.7.2-.8-1.6-.8-2.4 0-3.2 1.7-1.7 5.3-1.5 6.8.3zm11.4 1.8c2.1 1.6 1.8 5-.5 5.5-1.3.2-1.5-.3-1.2-2.3.4-2 .1-2.5-1.6-2.5-1.2 0-2.1.6-2.1 1.5 0 .8-.4 1.5-1 1.5-1.4 0-1.3-2.3.2-3.8 1.6-1.6 4-1.5 6.2.1zm11.6 2.5c2.5 2 1.9 4.7-1.2 5.5-1.6.5-1.8.3-.9-.6 1.8-1.8 1.3-4.7-.9-4.7-1.3 0-2 .7-2 2 0 1.1-.4 2-1 2-1.5 0-1.2-4.7.3-5.3 2.2-1 3.5-.7 5.7 1.1zm168.5 2.1c2.2.3 3.5.9 3 1.3-1.4.9-9.4-.7-10.8-2.2-1-1-.7-1.1 1.3-.5 1.4.4 4.3 1 6.5 1.4zm-155.7 2c.6 4.1-3.5 5.4-6.8 2.1-2.9-2.9-1.6-5.2 2.9-4.8 2.9.2 3.7.7 3.9 2.7zm5.7 2.1c0 1.6-.3 3-.7 3-1 0-2-3.8-1.3-5 1.2-1.9 2-1 2 2zm219.5 1.1c0 1.7-3 1.7-4-.1-1.5-2.8-1.3-3.1 1.5-1.8 1.4.6 2.5 1.5 2.5 1.9zM822.7 351c2 2.3 2.1 3 1.1 6.3-.6 2-1.6 3.7-2.1 3.7s-.7-.6-.4-1.4c.3-.8 0-3.3-.7-5.7-1.1-3.7-1.4-4.1-2-2.2-.4 1.2-1.3 2.7-2.1 3.3-1.3 1-1.5.8-1.5-1.4 0-1.7.4-2.5 1.1-2 .8.4.9-.1.4-1.6s-.3-2 .3-1.6c.6.3 1.4.1 1.7-.5.4-.6 1-.7 1.4-.2.3.4 1.6 1.9 2.8 3.3zm90.3 18.9c0 1.4-7.1 9.1-8.4 9-.7 0-.6-.2.2-.6.6-.2 1.2-.8 1.2-1.2 0-.7 6.1-7.9 6.8-8 .1-.1.2.3.2.8zm-43.5 19.3c-.4 1.3-1.1 2.7-1.6 3.2-1.5 1.7-2.3-.3-1.1-2.9 1.5-3.2 3.6-3.4 2.7-.3zm61 13.8c1.8.8 1.8.9.2.9-1.2.1-1.6.5-1 1.3 1 1.8 1.3 3.8.4 3.8-.4 0-3.2-.7-6.2-1.6-4.4-1.4-5-1.8-3.4-2.5 2.8-1.1 3.7-1.1 3 .1-.8 1.4 1.2 1.3 3.8-.2 2.2-1.2 2.2-1.2-.3-1.9-2-.5-2.1-.7-.5-.7 1.1 0 2.9.3 4 .8zm-314 6.7c-.3 1.5-1.2 3.1-1.8 3.5-.7.4-1.2 1.1-1.2 1.6 0 1.1-2.3 3.3-5.6 5.4-2.9 1.8-16.5 3.2-17.5 1.7-.8-1.4-8.6-1-11.8.6-1.5.8-3.5 1.5-4.2 1.5-.8 0-1.4.6-1.4 1.4 0 .7-1.6 2.1-3.5 3-1.9.9-3.5 2.2-3.5 2.8 0 .9-.3.9-1.2 0-.7-.7-2-1.2-3-1.2-2.6 0-2.2-3.2.7-6 2.8-2.7 1.9-4-2.7-4-4.9 0-3.7-2.2 4.1-7.9 6.8-4.8 21-3.9 29.1 2 6.1 4.4 9.6 3.8 17-3 5.4-4.9 7.5-5.3 6.5-1.4zm-261.2 1.8c2.6.4 4.7 1 4.7 1.4 0 .3-2.5 1.8-5.6 3.2-5.6 2.6-5.6 2.6-7-.7-2-4.7-1.8-5.7.9-5.1 1.2.3 4.3.9 7 1.2zm594.3-.4c.4.8-.1.9-1.7.5-1.7-.4-1.6-.2.6.8 1.6.8 3.5 1.2 4.2.9.6-.3 2 0 3 .7 1.6.9 1.5 1-.7.5-1.9-.5-2.2-.4-1 .4.8.6 2.6 1.1 4 1.2 1.9.1 2.1.2.6.6-1.5.4-1.6.7-.5 1.4 1 .6.3.9-2.1.9-1.9 0-6.2-1.4-9.5-3.1-3.3-1.6-5.2-2.8-4.3-2.5 1 .3 2 .1 2.3-.4.4-.6 0-1-.7-1.1-.7 0-.4-.4.7-.9 2.8-1.2 4.3-1.2 5.1.1zm-39 1.5c-.3.9-.6 2-.6 2.5s-1.1.9-2.5.9c-1.8 0-2.5-.5-2.5-1.8 0-2.5.9-3.2 3.8-3.2 1.8 0 2.3.4 1.8 1.6zm12.4 4c0 1.6-4.6 2.7-8.4 1.8-2.9-.6-3-.7-.8-1.5 1.2-.5 2.2-1.5 2.2-2.3 0-1.2.6-1.2 3.5-.3 1.9.6 3.5 1.6 3.5 2.3zm-589.5-.4c2.3 10 3.5 17.8 3.5 22.7 0 5.8 0 5.9-3.2 6.5-3.8.8-4.3.4-2.9-2.3 1.8-3.2.2-9.2-3.4-13.4-3.8-4.4-7.2-4.7-9.1-.9-1.6 3.3 0 11.7 3.1 15.7 2.5 3.4 2.5 3.4-3.2 5-3.3 1-5.9 1.3-6.1.7-.5-1.5-5.2-.1-5.2 1.5 0 2.5-2.5.8-2.8-1.9-.2-1.9.2-2.7 2-3.1 1.3-.4 2.5-.2 2.6.3.9 2.6 2 .5 1.8-3.3-.2-5.7-1.1-6.9-4.2-5.7-1.4.6-3.5 1-4.7 1-1.2 0-2.9.5-3.7 1-1.2.8-1.3 1.3-.3 2.9 1.6 2.6-.6 5.1-4.5 5.2-1.5 0-5.8 1.1-9.7 2.5-6.7 2.3-5.3 2.7 3.2.8 2.7-.5 3.4-.3 3.9 1.2.3 1.1.9 2.6 1.4 3.6 1.5 2.7-4.1 5.6-16 8.2-2.2.4-2.4 3.6-.3 5.1 1.1.9 3 1.2 5.1.9 3.4-.7 4.1.2 1.6 2-.9.7-1.2 1.8-.8 2.9.9 2.4 2.9.6 6-5.5 4.2-8.3 11.1-11.8 39.2-19.6 8.9-2.5 10.2-2.7 10.3-1.3.5 5.8.4 7.1-.6 7.1-.6 0-1.6-.5-2.3-1.2-1.9-1.9-9.2 1-9.2 3.7 0 1.1-.5 2.6-1.2 3.3-.6.6-.9 1.4-.6 1.7.6.6 11.6-3.1 13.4-4.5 1.5-1.3 2 .9 3 12.7.5 7.2.4 8.3-1 8.3-1.7 0-5.2 10.2-4.1 11.9 1.4 2.4 5.1-2.1 4.5-5.4-.1-.7.2-.7.8 0 .5.5 1.7 3.9 2.6 7.5 1 3.6 2.2 7.9 2.8 9.6.9 2.5.8 4-.5 7.3-2.1 5.2-1.3 9.1 2.7 13.2 5.5 5.7 14.5 8.9 34.8 12.5 10.3 1.8 16.5 1.5 27.3-1.3 3.3-.8 6.6-1.9 7.2-2.5 2.2-1.8.3-2.8-4.2-2.1-2.9.4-4.5.2-4.5-.5 0-.6.6-1.3 1.3-1.6.6-.2.3-.4-.8-.4-3.9.2-5.6-.2-5-1.2.6-1-1.2-1.2-8.2-1.3-1.8-.1-3.3-.4-3.3-.9 0-.4-.6-.5-1.4-.2-.8.3-4 .1-7.2-.5-4.5-.9-6-.8-6.6.1-.5.9-.8.7-.9-.7-.2-2.6-.2-2.7.7-4.9.6-1.5.4-1.8-.7-1.4-.9.4-2.1-.2-2.8-1.3-.6-1.1-1.6-1.7-2.1-1.4-1.5.9-1.2-.8.6-3.3 1.7-2.5.8-3.1-1-.6-1 1.3-1.2.9-1.1-2 .1-2 .5-3.9.8-4.3.4-.3.3-1.1-.2-1.7-1-1.3.4-5.6 1.9-5.6.5 0 1-.4 1-1 0-.5-.8-.6-1.7-.3-1.6.6-1.6.5 0-1.7 2-2.9 2.2-4.4.5-3.4-.7.4-.2-.9 1-3 1.2-2 2.2-4 2.2-4.4 0-.4-.5.1-1.1 1-1.3 2.4-2.8 2.3-2.6-.1 0-1.1.5-1.7.9-1.5.4.3.8.1.8-.4 0-1.4-2.6-3.3-3.3-2.5-.4.3-.7.1-.7-.6 0-.8.7-1 2.1-.6 2 .7 2.1.5 1.5-2.1-.4-1.6-1.2-3.1-1.7-3.2-.6-.3-.5-.9.1-1.7.6-.8 1.7-1.2 2.4-.9.7.3 1.9-.2 2.6-1 .7-.9 1.6-1.3 2.2-1 .5.3 1.5 0 2.3-.6 1.6-1.3 1.6-1.3 1.9 4.9.1 2.1-.3 2.7-1.4 2.3-1.3-.5-1.3-.3-.2 1.1.8.9 1.1 2.1.7 2.7-.3.5-.2 1 .4 1 .6 0 .8.6.5 1.4-.3.8 0 2.3.6 3.3 1.1 1.7 1.1 1.7.6 0-.6-2 1.6-6.1 2.7-5 .4.3.3 1.1-.2 1.7-1.3 1.6-.1 7.6 1.5 7.7.8.1 2 .2 2.7.3.6.1 1.2-.9 1.2-2.1 0-1.3.5-2.3 1-2.2.6 0 1 .9.9 1.9-.1 2.1.9 2.4 6 2 1.6-.1 2.6.2 2.2.8-.3.6-2.4.9-4.7.8-4.7-.1-6.2 1.6-6.5 7.4-.3 5.6-1.3 7.5-4.6 8.8-2.6 1-2.9 1.4-1.8 2.7 1.7 2 .5 6.6-1.5 5.9-2-.8-1.9.5.2 2.8 2.7 3 8.3 2.1 8.3-1.4 0-2.4 9-17.5 11.9-20.2 2.5-2.2 2.6-4.2.6-7.6-.8-1.4-1.9-3.7-2.5-5.1-.8-2-2-2.8-4.5-3.1-1.9-.2-3.6-.1-3.8.2-.2.3-.2-.1 0-.8.1-.8.3-2.1.3-3 .1-1.5.3-1.4 1.5.2.8 1.1 1.8 1.7 2.1 1.3.4-.4-.3-1.5-1.4-2.6-2.3-1.9-2.3-6 .1-10.9 1.1-2.2 3.7-3.1 3.7-1.1 0 .5.4.7 1 .4.6-.3.7.1.4.9-.3.9-.1 1.6.5 1.6s1 .3.9.7c-.2 1.3 1.4 4.3 2.1 3.9.3-.2.7.6.8 1.7.2 2.3 12.3 24.6 13.4 24.7.4 0-1.5-4-4.1-9-2.6-4.9-4.5-9.2-4.2-9.5.3-.3 0-.5-.6-.5-.7 0-1.2-.7-1.2-1.5 0-1.1 1.2-.5 3.5 1.8 2 1.9 5.9 4.4 8.8 5.5 5.2 2.1 5.2 2.1 1.7-.6-5.5-4.3-13.5-12.5-14.3-14.6-.7-1.8-.7-1.9 1-.4 3.4 3 15.3 8.4 15.3 7 0-.5-2.7-2.1-6.1-3.7-6-2.9-16.9-12.6-16.9-15.1 0-.6.7-1.7 1.5-2.4 1.1-.9 1.9-.8 3.7.4 2.9 2.1 7.4 2.1 8.2 0 .3-.8 1-1.2 1.6-.9.5.3 1 .2 1-.4 0-.5 1.9-.8 4.3-.7 4 .3 4.6.8 12.2 9.9 8.8 10.4 23.9 31.9 33 46.8 5.4 8.8 19.9 37.3 27.3 53.6 1.8 4 3.7 7.3 4.2 7.3s.6.8.3 1.7c-.6 1.5-.5 1.6.9.3.9-.8 1.2-1.6.8-1.8-.5-.2-.6-1-.3-1.9.4-1.1.2-1.4-.5-.9-1.4.8-1.4.3-.3-4.7.6-2.4.5-3.7-.1-3.7s-.8-.7-.4-1.5c.8-2.1-2.5-8.9-3.6-7.3-.6 1-.8 1-.8.1 0-.6.5-1.5 1-1.8 2-1.2 1.1-4.5-1.2-4.6-2.2-.1-2.2-.1.2-.8 1.7-.5 2.1-.9 1.2-1.5-1.4-.9-1.6-4.6-.2-4.6.6 0 1-.5 1-1.1 0-.5-.4-.8-.9-.4-.5.3-1.2.1-1.6-.4-.3-.5.3-1.5 1.2-2 1.7-1 1.7-1.2-.2-2.6-1.2-1-1.9-2.5-1.7-3.9.2-1.6-.5-3-2.2-4.4-1.4-1.1-2.6-2.6-2.6-3.3 0-.8-.9-2.5-2-3.9s-2-3.1-2-3.8c0-.6-.5-1.1-1.2-1-.7.2-1.5-1.6-1.9-4.1-.5-2.4-1.6-4.9-2.6-5.7-1.7-1.3-1.7-1.3 0-1.4.9 0 1.7-.6 1.7-1.4 0-.9-.7-1.2-1.8-.9-1 .2-2.4-.2-3-1-.9-1.1-.6-1.3 2.1-1 1.7.2 2.5 0 1.7-.3-.8-.4-1.9-1.3-2.3-2.1-.5-.7-1.2-1.1-1.7-.8-.5.3-1.4-1.1-2-3.1-1-2.9-1-4.5 0-7.5 1.5-4.4 1.4-4.3 4-2.7 2.5 1.6 3.4.5 3.3-3.8-.1-2.8.2-3.4 1.5-3.2 1 .2 1.8 1.3 2 2.6.2 1.2 1 2.2 1.7 2.2 1 0 1.2-.7.5-2.9-.8-2.8-.7-2.8 3.4-2.8 2.2 0 5.2-.3 6.6-.7 1.4-.5 4.2-1.1 6.3-1.3 2-.3 4-.9 4.3-1.4.7-1.2 6.4-1.2 6.4 0 0 .5.3 1.6.6 2.5.4 1.1-.6 1.8-3.8 2.7-7.3 2-16.2 4.9-18.5 6.1-2.7 1.3-2.9 2.4-.8 4.4.8.9 1.5 1.1 1.5.5 0-.6.9-1.1 2-1.1s2 .6 2 1.4c0 2.6 1.9 2.8 9.5.7 8.9-2.5 10.5-2.6 10.5-.7 0 .9-2 1.9-5.2 2.7-3.7.9-4.6 1.4-3 1.7 4.4.7 2.2 2.3-2.5 1.8-2.7-.3-4-.3-3 0 .9.3 1.7 1 1.7 1.5s1.8.9 4 .9c2.5 0 4-.5 4-1.3 0-.9.3-.8.9.2.6.9 1.1 1 1.5.2.8-1.2 2.6-1.5 2.6-.3 0 .9-4.6 3-8.8 3.8-1.8.4-3.2 1.3-3.2 2.1s-.5 1.1-1.2.8c-.7-.4-.4.1.6.9 1.1.9 2.5 1.6 3 1.6.6 0 2 .7 3.1 1.6 1.8 1.3 1.7 1.4-1.4.8-3.4-.7-3.4-.7-1.1 1.6 1.5 1.5 1.9 2.5 1.2 2.8-1.9.6-1.4 3 .9 4.2 2.7 1.5 2.8 1.3 3.4-4.5.5-4.9 1.6-6.5 4.7-6.5.9 0 2.3-.3 3.2-.6 1.1-.4 1.7.2 2.2 2.3.4 1.5 1.2 3.5 1.9 4.3 2.4 2.8 7.5 14.4 7 15.8-.2.7-.1 1 .5.7 1.1-.7 3.6 3 4.5 6.7.6 2.4.4 2.8-1.4 2.8-2.9 0-2.6 2.2.6 5.1 1.4 1.3 2.3 1.8 1.9 1.1-.4-.6-.2-1.2.4-1.2.6 0 .8-.5.5-1-.9-1.5.1-1.2 1.4.3.8 1.1-1.2 3.4-9.6 10.8-5.9 5.2-14.3 12.8-18.6 16.9-4.4 4.1-8.4 7.4-8.9 7.2-.5-.1-.7.2-.4.6.3.5-.3 1.7-1.4 2.7-1.1 1-2 1.3-2 .7 0-.6.6-1.2 1.3-1.5.6-.2.9-.8.5-1.2-1.1-1.2-2.2.2-2.3 2.8-.1 2.3-12.6 28.7-13.6 28.7-.3 0-1.1-1.1-1.7-2.5-.6-1.4-1.7-2.5-2.3-2.5-.6 0-.1 1.6 1.1 3.5 2.2 3.6 2.2 3.6-2.4 14.3-3.7 8.3-5.4 11.2-7.9 12.7-1.7 1.1-4.2 3.5-5.4 5.4-1.3 1.9-2.3 2.7-2.3 1.9 0-2.4-4.7-6.5-8.2-7.2-3-.6-7.8.8-25.7 7.7-5.3 2-5.5 2-6.5.2-.6-1-1.8-2.4-2.6-3.2-7.7-6.8-10.2-8.6-16.4-11.6-8.6-4.2-22.2-10.2-25.3-11.2-2.9-.8-2.9-1 .7-10 1.7-4.2 3-8.1 3-8.8 0-2.2-6.6-7.9-8.6-7.5-1.4.2-3 3.2-5.6 10.2-2 5.4-3.9 10-4.1 10.2-.3.3-9.5-3.2-18.2-7.1-1.6-.7-4.1-1.6-5.5-2-3-.9-14.1-5.8-19.1-8.5-2-1.1-4.3-2-5-2-.8 0-3.6-2.1-6.4-4.7-2.7-2.5-4.4-4.3-3.6-3.8 1 .5 1.2.4.7-.4-.4-.6-1.1-.9-1.4-.7-2.8 1.7-41.1-29.8-44.4-36.5-1-1.9-3.2-6.8-4.9-10.9-1.7-4.1-3.8-8.2-4.5-9.1-.8-.8-1.4-1.9-1.4-2.3 0-1-8.9-14.5-12.7-19.2-3.9-4.9-4-5.4-.9-5.4 1.4 0 2.8-.5 3.1-1.1.4-.6 1.3-.8 2.1-.5.8.3 2.2.2 3.2-.3.9-.5 3.5-1.4 5.7-2.1 8.8-2.6 12.6-4.4 13.7-6.3 1-1.9.8-2-2.3-1.4-7.3 1.4-23.4 6.2-24.1 7.2-.4.5-.8.6-.8.1s-.7-.3-1.5.4-1.5.9-1.5.4-.4-.3-.9.4c-.6 1.1-1.1 1-2.5-.3-2.5-2.5-2-3.1 3.7-4.4 2.9-.6 10.2-2.7 16.1-4.5 6-1.9 11.5-3.2 12.3-2.9.8.3 2.7-.4 4.3-1.6 1.6-1.1 3.4-2.1 3.9-2.1 1.3 0 .3-8.6-1.3-11.6-1.1-2.2-1.1-2.2-13.3.9-8.5 2.1-12.3 3.5-12.6 4.6-.2 1-4.2 2.8-11.3 4.9-6 1.9-11.6 3.6-12.4 3.8-1.8.6-11.3-7.3-10.8-8.8.4-1.2 24-8.7 42.2-13.4 11.3-2.9 14-3.3 14.7-2.2 1.8 2.8.6-7.9-1.8-15.7-.5-1.7-.4-1.8 1-.7.9.8 2.5 1.1 3.7.7 1.9-.6 2-.5.9 1.3-.7 1.2-1.7 1.8-2.2 1.5-.8-.5 0 3.5.8 4.5.6.7 17.5-3.3 17.5-4.1 0-.5-2.5-.5-5.5-.2-4.6.6-5.6.5-6.1-.9-.9-2.4-.2-2.7 3.5-1.6 3.8 1 7.1-.1 7.1-2.5 0-.8.3-1.4.8-1.4 1.8.4 7.2-2.4 7.2-3.7 0-1.7-3.5-1.8-7.9-.3-2.5.9-3.8.9-5.6-.1-1.3-.7-2.8-.9-3.4-.5-.7.4-3.3.7-5.9.7-2.6 0-5.3.4-5.9 1-1 .8-1.3.5-1.3-1 0-2.1 2.4-3.2 7.6-3.2 1.7 0 14.8-2.7 29-5.9 29.8-6.9 29.7-6.8 30.6-7 .4 0 1 .9 1.3 2.1zm68.4 13.8c1.8 0 .7 4.2-2.5 9.7-2.2 3.8-2.9 4.3-6 4.3-2 0-3.4-.4-3.2-.8 4.9-11.8 6.4-14.3 8.3-13.8 1.1.3 2.6.6 3.4.6zm-55 35.7c-.1 9.8-.3 17.1-.5 16.3-.9-3.9-3.4-32.2-2.9-33.1.4-.5 1.3-.9 2.1-.9 1.2 0 1.4 2.9 1.3 17.7zm49.1-14.2c-1.6 1.9-3.1 1.9-5.6 0-1.8-1.3-1.6-1.4 2.5-1.5 3.7 0 4.2.2 3.1 1.5zm-183.8 10.8c.7 1.5.6 1.8-.9 1.5-1.3-.2-1.9-1.4-2-4.3-.2-3.7-.2-3.8.8-1.5.6 1.4 1.5 3.3 2.1 4.3zm344.2 9c1.6.1 3.1.9 3.3 1.7.4 1.3.3 1.3-.6 0-1.2-1.8-2.6-.7-1.8 1.5.4.8 1.8 1.5 3.2 1.5 1.5 0 2.4-.4 2-1-.3-.6.1-1 1-1s1.4.4 1 1c-.7 1.1 3 5 4.8 5 .9 0 .9-.2-.1-.8-1.9-1.2-2.4-5.2-.7-5.2.9 0 1.2-.6.9-1.5-.8-2 1.5-1.9 4.4.1 2.2 1.5 2.4 1.5 2.9-.5.5-1.8 1.2-2.1 5.4-2 2.6.1 4.6.5 4.4.9-.3.4 2.9.5 7 .3 4.2-.3 8.3-.2 9.3.3.9.4 2.6.9 3.6 1.1 1.1.2 2.5.8 3.3 1.4.7.6 1.4.8 1.5.3 0-.5.4 1.1.7 3.6.7 5-.5 4.6 20.5 6.8 3.8.4 7.1 1.2 7.3 1.8.7 2.1-15.2 2.7-23.9.9-3.6-.7-3.8-.6-3.8 1.8 0 1.4.5 2.9 1 3.2 1.2.8 1.3 2.5.1 2.5-.5 0-1.1-.9-1.4-2-.3-1.1-1.7-2.2-3.3-2.5-1.6-.3-3.7-1-4.6-1.6-1.2-.6-1.8-.6-1.8 0s-2.4.8-5.7.5c-3.2-.2-10.7-.6-16.7-.7-7.7-.1-11.1-.6-11.3-1.5-.3-.6-2-1.2-3.8-1.2-3.6 0-12.2-3.4-11.7-4.7.2-.4-.4-1.3-1.4-1.8-1-.6-2.5-1.6-3.2-2.3-1.2-1.1-1-1.2 1.1-.7 2.7.7 7.7-1.8 5.9-2.9-.6-.3-1.8.2-2.8 1.1-1.6 1.6-1.7 1.6-1.1.1.4-1.2 0-1.9-1.4-2.3-3-1-2.3-2.8.9-2.1 1.5.4 4 .8 5.6.9zm-15.4 3.2c1.3 1.4 2.1 2.7 1.9 3-.8.7-4.9-.7-4.4-1.5.3-.5.1-1.1-.5-1.5-1.2-.7-1.3-2.5-.2-2.5.5 0 1.9 1.1 3.2 2.5zm374.1 2.2c.1 1 .1 2.2 0 2.7s.6.5 1.6.2c1.4-.6 1.5-.4.6.5-.6.6-1.8.9-2.5.7-1.6-.6-2.3-5.8-.8-5.8.6 0 1.1.8 1.1 1.7zm-19.3 15.8c-.2.3-2.3 1.5-4.5 2.7-2.3 1.3-7.1 4-10.8 6.1-3.6 2-7.1 3.4-7.7 3.1-.6-.4-.8-.2-.4.4.6 1.1-9 6.8-47.9 28.2-2.7 1.5-6.8 3.9-9 5.5-2.2 1.5-7.4 4.4-11.5 6.5-4.1 2.1-10 5.5-13 7.4-3 2-5.8 3.6-6.2 3.6-.4 0-3.7 1.3-7.3 3-3.6 1.7-7 3-7.5 3s-2.4.9-4.2 1.9c-1.8 1.1-5.8 2.6-8.8 3.4-3 .8-9.1 2.8-13.5 4.4-4.4 1.7-10 3.1-12.5 3.3-9.7.5-11.3.5-11.7-.6-.3-.8 1.6-1.1 5.6-1 3.2 0 5.7-.2 5.4-.7-.2-.4.3-.7 1.2-.7 1.2 0 1.5-.6 1-2-.5-1.7-.2-2 2.7-2.1 1.8-.1 2.5-.3 1.6-.6-3.1-.8-2-2 1.4-1.5 2.6.4 3 .2 2.5-1.2-.4-1-.1-1.9.7-2.2.8-.3 1.7-1.5 2.1-2.7.6-1.9.8-2 1.2-.5.4 1.8 2.4 2.4 3.6 1.1.4-.3.2-1.2-.4-2-.9-1-.7-1.3.9-1.3 1.5 0 2-.5 1.6-1.5-.4-.8-.2-1.5.3-1.5 2 0 .5-5.4-2.1-7.5-2.3-1.8-2.5-2.3-1.2-2.8.9-.4 1.6-1.3 1.6-2.1s.6-1.7 1.3-1.9c.6-.3-.2-.6-2-.6-4.5-.1-4.9-1.7-.6-2.4 2-.4 3.8-.5 3.9-.4 0 .1.4 1.6.7 3.4.5 2.6.3 3.1-.8 2.6-1-.3-1.5.1-1.5 1.5 0 5 5.2 2.8 8.8-3.7 1.3-2.2 3-4.1 4-4.3 1.2-.2.6-.9-2-2.1-2.1-1-3.8-2.2-3.8-2.6 0-1.3 4-4.5 4.7-3.8.3.4.1.7-.5.7-.7 0-1.2.5-1.2 1.1 0 1.6 2.8 4 3.4 3 .4-.5 0-1.2-.6-1.4-.8-.4-.5-.8.9-1.2 1.2-.4 2.4-1.7 2.7-2.8 1.1-4.3 2.2-5.2 4-3.4.9.8 1.6 2 1.6 2.6 0 1.5 1.7 1.4 2.3-.2.2-.6-.3-1.7-1.2-2.4-1.3-.9-1.4-1.4-.3-2.4 1.4-1.5 1.6-4.9.2-4.9-1.4 0-1.3-1.6.3-3.2.7-.7 1.8-2.4 2.5-3.8s1-1.7.8-.8c-.3.9.2 2.2 1 2.8 1.9 1.6 1.8 3.4-.1 2.6-.8-.3-1.5 0-1.5.6 0 1.4 6.5.4 10.6-1.6 1.6-.9 4-1.3 5.2-1 2 .6 2 .8.7 2.7-.8 1.2-1.5 2.9-1.5 3.8 0 1-.3 1.9-.7 2.2-.5.2-.2.2.5 0 1-.2 1.2.5.7 3-.9 3.9-1.3 4.7-2.6 4.7-1.6 0-4.8 4.2-4.9 6.2 0 2.6 1.3 2.2 5.4-1.7 2.1-1.9 4.2-3.5 4.7-3.5s.9-1.1.9-2.5-.3-2.5-.7-2.5c-.5 0-.8-1.1-.8-2.5 0-1.8.5-2.4 1.5-2.2.8.2 1.4.9 1.2 1.5-.2 1.4 0 1.4 2.2.6 2-.8 2.1-3.4.1-3.4-1 0-1.5-.9-1.4-2.8 0-2.4.1-2.5 1.2-.9 3.3 5.1 3.3 5.1 4.8 3.3.8-.9 2-2.3 2.7-3.1 1.7-2 1.5-2.7-.7-2-2.8.9-3.3-.9-.6-2.1 2.1-1 2.4-.9 3 1.3.6 2.4.6 2.4 3.1-.7 2.9-3.4 4.9-3.9 4.1-1-.4 1.5 0 2 1.4 2 1.2 0 1.6-.5 1.3-1.5-.4-1 0-1.5 1.3-1.5 2.5 0 5.7-3.5 4.8-5-.5-.9-.1-1 1.4-.5 1.5.4 2.1.2 2.1-.8 0-.8.7-2 1.5-2.7 1.2-1 1.5-1 1.5.2 0 .8-.6 2-1.2 2.7-1.1 1-.9 1.2.6.9 1-.1 2.4-1.2 3-2.3.6-1.1 1.4-2.2 1.7-2.5.4-.3.9-1.5 1.3-2.8.4-1.2 1.2-2.2 1.8-2.2.5 0 .7.7.4 1.6-.4 1-.1 1.4.6 1.1.7-.2 1.4-1 1.4-1.8.1-.8.2-1.7.3-2.2 0-.4 12.8-.7 28.3-.7s27.9.2 27.6.5zm-717.8 4c0 .8.5 1.5 1 1.5.6 0 1 .5 1 1.1 0 .5-.5.7-1.1.3-.8-.4-.9.1-.4 1.6.5 1.6.4 2.1-.6 1.8-1.5-.5-2.2-7.8-.8-7.8.5 0 .9.7.9 1.5zm592 10.1c0 1.5-.6 2.4-1.6 2.4-1.1 0-1.4-.5-1-1.6.3-.9.6-2.2.6-3 0-.9.5-1.2 1-.9.6.3 1 1.7 1 3.1zm-9.7 28.1c1.1 1.1-1.4 3.3-3.8 3.3-2.9 0-3.7-.9-2.2-2.6 1.3-1.4 4.9-1.9 6-.7zm241.2.7c1.2 1.2 1.1 1.5-.8 2-4.3 1.1-5.2.8-3.2-1.4 2.2-2.4 2.2-2.4 4-.6zm-96 10.1c-6.1 2.9-14.6 6.5-15.1 6.5-.3 0-5.7 2.3-12.1 5-6.3 2.8-11.7 4.9-12 4.7-.5-.6 12.1-7.7 13.6-7.7.6 0 1.1-.3 1.1-.8 0-.4 1-1.2 2.3-1.8 1.2-.6 4.6-2.3 7.4-3.8 3.8-1.9 6.5-2.6 9.8-2.5 2.4.2 4.8 0 5.1-.4.4-.4 1.2-.7 1.8-.6.6 0-.2.7-1.9 1.4zm-158.5 8c0 1.9-.5 2.5-2.1 2.5-1.5 0-1.9-.4-1.5-1.6.3-.9.6-2 .6-2.5s.7-.9 1.5-.9c.9 0 1.5.9 1.5 2.5zm128 16.3c-1.9 1-6.4 2.9-10 4.1-8.1 2.9-8 2.8-22.6 9.5-6.6 3.1-12.4 5.6-12.9 5.6-.4 0-4.8 2-9.6 4.5-12 6.1-12.4 5.6-.9-1.1 5.2-3 11.9-7.1 14.8-9.1 2.9-1.9 6.9-3.7 8.9-3.9 1.9-.2 5.6-1.3 8.2-2.3 4.9-2 16.6-6.3 21.6-8 4.9-1.6 6.2-1.2 2.5.7zM694.5 575c.4.6.1 1.7-.5 2.5-.7.8-.9 1.5-.5 1.5s.2.7-.5 1.5c-1 1.2-1 1.5.4 1.5.9 0 1.7-.7 1.7-1.5.3-2.8.4-3.3 1.2-4.1.4-.4.7-.2.7.4 0 .6.8 1.3 1.8 1.5 1.3.4 1.1.5-.5.6-2.4.1-3.3 2.1-1 2.1 5 .1-15.9 6.3-36.3 10.7-6.9 1.5-12.7 3-13 3.4-.9 1.2-9 2.2-9 1 0-.5.5-1.3 1.2-1.7.7-.4.8-.3.4.4-.9 1.5-.5 1.5 2.9.2 1.4-.5 2.3-1.4 2-2-.3-.5.1-1 1-1s1.4-.4 1.1-.9c-.4-.5.4-.7 1.6-.3 1.8.4 2 .2 1.6-1.6-.4-1.4-.2-1.9.8-1.5.7.2 1.5 1.2 1.7 2.1.2 1.2.9.5 2-2.1.9-2 2.1-3.7 2.8-3.7.8 0 .8.4-.1 1.5-1.1 1.4-1 1.4 1.6.5 7.5-2.7 13.4-6.8 13.4-9.2 0-.4.7-.8 1.6-.8.8 0 1.2.4.9 1-.3.5-.2 1 .4 1 .5 0 1.1-.5 1.3-1.2.5-1.5 6.9-1.3 7.8.3.4.6 1.3.8 1.9.5.6-.4.8-1.2.5-1.8-.4-.7-.2-.8.5-.4.6.4.9 1.2.6 1.7-.4.5-.1.9.4.9.6 0 1.1.4 1.1 1 0 .5-.7 1-1.5 1-2 0-1.9 1.9.1 2.7 1.7.6 3.5-1.3 3.3-3.7-.4-4.6 1-6.6 2.6-4zm-2.7 23.2c-2.5 2.2-5.4 2.3-6.1.4-.8-2 .1-2.5 4.3-2.3 3.8.1 3.8.1 1.8 1.9zm117.2.3c0 .2-2.4 1.7-5.2 3.1-2.9 1.5-8.4 4.8-12.3 7.4-3.8 2.6-9.6 6.1-12.8 7.8-3.2 1.8-6.5 3.9-7.4 4.7-.8.8-2 1.5-2.6 1.5-.7 0 .7-1.9 3.1-4.1 2.4-2.3 4.1-4.4 3.8-4.7-.3-.3-4.7 1.5-9.9 4-8.4 4.1-18.6 11.2-22.8 16-1.8 2-15.9 9.2-16.6 8.5-1-1.1 5.4-6.9 10.7-9.6 3.2-1.7 9.7-5.5 14.3-8.5 13.1-8.6 20.9-12.5 32.5-16.5 5.9-2.1 13.9-5.2 17.7-6.8 3.9-1.7 7.1-3.1 7.3-3.2.1-.1.2.1.2.4zm-204.3 3.6c1.9 1.2 3.1 2.4 2.6 2.8-1.4 1-9.3 12.9-9.3 14 0 .5-.8 1.6-1.8 2.3-2.7 2-6.4 7.7-5.9 9.1.2.7-.3 1.9-1.1 2.7-1.4 1.3-1.5 1.2-1-.1.4-1 .1-1.6-.8-1.6s-1.2.7-.9 1.6c.3.9-.5 3.2-1.7 5.1-3 4.7-6.2 10.4-9.4 16.7-1.5 3.1-3.4 5.3-4.7 5.7-1.8.5-2 .8-.7 1.6s1.2 1-.2 1c-1 0-1.8.7-1.8 1.5 0 .9-.9 1.5-2.2 1.6-2.1 0-2.2.1-.4.8 1.8.7 1.6.9-1.4 1.9-1.8.7-3.4 1.2-3.5 1.2-.1 0-.2-.7-.2-1.5s.6-1.5 1.4-1.5c.7 0 1.3-.5 1.3-1 0-.6-.5-1-1-1-.6 0-.5-.6.2-1.4.8-.8 1.5-1 1.9-.4.9 1.4 10.3-15.2 10.2-17.9 0-1.2.3-2 .8-1.7.4.2.5 1.2.2 2.1-.4 1.1-.3 1.4.6.9 1.9-1.2 7.1-10.9 7.1-13.4 0-1.2.7-2.5 1.5-2.8.9-.4 1.3-1.4 1-2.8-.3-1.1-.1-3.5.5-5.1 1-3 1-3 .5.5-.4 2.4-.2 3.1.5 2.4 2.8-2.8 11-19.5 11-22.3 0-3.7 1.9-3.9 6.7-1zm89.9 10.5c-1.1 1-3.2 1.5-6.8 1.4-2.9-.1-6.6 0-8.3.3-1.6.2-2.4.2-1.7 0 2.2-.8 1.3-2.3-1.5-2.3-1.4 0-2.3-.3-1.9-.8.4-.4.8-.6.9-.4.1.2 1.6-.2 3.2-.9 1.7-.6 6.2-1.5 10-1.8 6.2-.5 7-.4 7.3 1.2.2.9-.4 2.4-1.2 3.3zm-1.9 5.1c-1 .3-2.9 2.6-4.1 5.1-1.7 3.8-2.7 4.8-5 5-2.8.3-2.9.3-2.3-3.8.3-2.3.7-4.4 1-4.6.5-.6 8.6-2.2 10.7-2.2.9 0 .7.2-.3.5zm-51.8 6c-.5 2.1-.9 4-.9 4.3 0 1.2-7-.3-7-1.4 0-2.5 3.2-5.7 5.1-5.1 1.1.4 1.9.2 1.9-.4 0-.6.4-1.1.9-1.1s.5 1.6 0 3.7zm16.6-2.9c-.5.4-1 1.8-1 3.2 0 2-.5 2.5-2.7 2.7-2.4.2-2.8-.2-2.8-2.6 0-3.5.6-4.1 4.4-4.1 1.7 0 2.7.4 2.1.8zm16 .2c-.3.5-1.1.8-1.8.6-.7-.1-.9-.1-.4.1 1.1.7.9 5.1-.3 5.8-.5.3-1 .1-1-.6 0-.6-.8-.9-2-.6-2.3.6-2.6-1.2-1-4.4.7-1.2 2.1-1.9 4.1-1.9 1.7 0 2.8.4 2.4 1zm-49.5 2.9c0 1.1-4.9 2.1-5.5 1.1-.3-.5.1-1.1.7-1.3 2.1-.9 4.8-.8 4.8.2zm60.7 9.6c-.8.8-2.5 3.1-3.8 5.2-1.3 2.1-3.5 5-5 6.4-1.6 1.4-3.1 3.7-3.4 5.1-.8 3-6.5 6.3-6.5 3.8 0-.6.6-1 1.4-1 .8 0 1.7-1.2 2-2.8.4-1.5 2-3.6 3.6-4.7 1.6-1 2.7-2.2 2.5-2.5-.2-.4.6-2.2 1.8-4.1 2.2-3.6 2.3-3.9 2.6-6.7.2-1.5.3-1.4 1.1.3.7 1.8.8 1.9 1.5.3.4-1 1.1-1.5 1.6-1.2.5.3.9-.1 1-.8 0-1 .2-1 .6-.1.2.7-.2 1.9-1 2.8zm20.9 17.5c-4.1 3.8-6.4 5.2-5.1 3 1-1.7-.4-1.1-2.5 1-1.1 1.1-2.7 2-3.5 2-1.3 0-1.3-.4.2-2.6 1.7-2.7 1.7-2.7-.7-1.9-1.4.4-6.3 2.5-10.9 4.6-9.2 4.3-9.1 4.3-9.1 3.1 0-.9 11.4-6.8 18.4-9.6 2.1-.9 5.5-1.6 7.5-1.7 2 0 4.5-.4 5.6-.9 4.2-1.8 4.3-.8.1 3z"/><path d="M363.3 337.9c-1.5 2.4.6 4.6 3.7 3.8 1.1-.3 2.3-.1 2.6.4.3.5 2 .8 3.7.8 2.8-.2 2.9-.2.7-.6-2.7-.5-4.2-2.2-3.3-3.6.2-.4 1.6-.1 2.9.8 2.1 1.4 2.4 1.4 2.4 0s-1.1-1.8-8-2.9c-2.8-.5-3.8-.2-4.7 1.3zM378.8 339.8c.7.5 1 1.6.7 2.4-.4.9-.2 1.9.4 2.3.7.3 1.1-.2 1.1-1.4 0-1.5.6-2.1 2.1-2.1 1.1 0 1.7-.5 1.4-1-.3-.6-2.1-1-3.8-1-2 0-2.7.3-1.9.8zM336.2 345.2c-.8.8-.9 1.5-.1 2.5.9 1 .8 1.3-.5 1.3-1.9 0-2.2 2-.3 2.1.6 0 .3.5-.8 1-1.5.7-1 .8 2 .5 6.7-.6 13.7-2.6 9.3-2.6-.9 0-2.1-1.4-2.7-3-1.1-3.2-4.6-4.1-6.9-1.8zM244.4 360.7c.4.7.2 1.3-.3 1.3-.6 0-1.1.7-1.1 1.5 0 1.9 2.6 2 3.3.1.3-.8-.2-2-1.1-2.8-1.1-.9-1.4-1-.8-.1zM364.4 370.7c-.6.5-1.1 1.5-1.1 2.3 0 .8-.4 2.4-.8 3.4-.8 1.7-.5 1.8 2.3 1.3 3.1-.6 8.2.9 8.2 2.4 0 .4.9.5 2 .2s2-.9 2-1.4c0-.5-.9-.9-2-.9s-2-.5-2-1c0-.6-1.1-1-2.4-1-1.3 0-2.9-.6-3.5-1.4-1-1.2-.8-1.5 1.1-1.8 1.3-.2 2.2-.8 2.1-1.3-.3-1.2-4.4-1.8-5.9-.8zM363.3 379.7c-2.1.8-1.5 1.9 1.3 2.1 1.6.1 2.4-.3 2.2-1-.5-1.4-1.8-1.8-3.5-1.1zM310.5 398.7c1.4 1.5 7.5 3.4 7.5 2.4 0-.5-1.1-1.2-2.4-1.5-1.3-.3-3.2-.9-4.3-1.2-1.2-.5-1.5-.4-.8.3zM479.7 416.4c-1 .8-1.4 1.7-.8 2 .5.3 1.2 0 1.5-.6.5-1 .7-1 1.2-.1.7 1.5 4.4 1.7 4.4.3 0-.6-.7-1-1.5-1s-1.5-.5-1.5-1c0-1.4-1.1-1.2-3.3.4zM534.7 89.6c-1 1-.9 2.6.2 2 1.3-.8 3.4 2.1 2.5 3.5-.4.8-.3.9.4.5s1.2-.2 1.2.3c0 .6.5 1.1 1 1.1 1.7 0 1.1-1.4-1.8-4.9-1.5-1.8-3-2.9-3.5-2.5zM259.5 125.9c-1.2 3.9 1 5.8 7.3 6.5 3.3.4 6.2 1 6.6 1.3.4.4 2.6.8 4.9.9 13.6.8 39.4 4.9 41.4 6.6.9.7 1.7.7 2.7-.1.7-.6 2-.9 2.7-.6.8.3 2.8.7 4.4.9 10.2 1.2 25.5 3.9 25.5 4.5 0 .4 2.6.7 5.8.6 5.6-.2 5.7-.3 5.7-3 0-2.9-.1-2.9-8.4-4.1-4.6-.7-8.7-1.7-9.1-2.3-.3-.7-1.4-.9-2.4-.5s-2.8.1-4.1-.6c-1.5-.8-2.8-.9-4-.2-1 .5-3.3.6-5.4.2-2-.4-5.8-1-8.4-1.4-4.3-.5-4.9-.3-5.6 1.7-.9 2.2-.9 2.2-1.9-.3-.9-2.4-1.8-2.7-13.3-4.3-6.8-.9-12.5-2.1-12.7-2.7-.7-2.1-3.2-.9-3.2 1.5 0 1.8-.4 2.3-1.5 1.9-.8-.4-1.5-1.2-1.5-1.8 0-1.1-8.1-3.3-14.5-4-1.1-.2-3.1-.6-4.5-1s-3.3-1-4.2-1.2c-1-.3-1.9.3-2.3 1.5zM217 135.9c0 1.7.4 3.2.8 3.5.4.2 3.9.7 7.6 1.1 3.8.3 7.2.8 7.7 1.1.4.2 3 .7 5.6.9 2.6.3 7.4 1 10.6 1.6 4.2.7 6.2.7 7.2-.1.9-.8 1.4-.7 1.8.3.3.9 2.9 1.7 6.8 2.1 5.4.6 6.5.5 7.6-1 1.2-1.7 1.3-1.6 1.3.4 0 1.2.2 2.2.4 2.2s8.2 1.2 17.8 2.7c9.5 1.4 19.4 2.7 22.1 2.7 3.1.1 4.7.5 4.7 1.4 0 1.8 2.5 2.5 4.7 1.4 1.3-.7 4.1-.6 8.8.3 4.4.8 7.4 1 8.2.4.7-.6 1.2-.6 1.5.1.2.6 6.1 1.9 13.1 2.9 7.1 1 13.4 2.4 14 3 1.4 1.4 4.4 1.4 4.9.1.2-.6 1.6-.6 4.1.1 4.7 1.3 6.7.6 6.7-2 0-2.5-.7-2.9-6.1-3.6-7.5-.9-12.8-2.2-14.4-3.5-1.2-1-2.2-1-3.9-.2-1.8.8-3.8.7-8.2-.5-3.2-.8-7.1-1.3-8.6-1.1-1.7.3-2.8 0-2.8-.7 0-.8-1.8-1.2-4.7-1.2-9 0-18.3-1.2-21.5-2.8-2-.9-4.3-1.3-6-1-1.7.4-2.8.2-2.8-.4 0-.6-2.3-1-5.4-1-2.9.1-6.3-.4-7.4-1-1.1-.6-2.8-.8-3.6-.5-.9.3-1.6.1-1.6-.4 0-.7-1.4-.9-3.5-.5-2 .3-3.5.1-3.5-.4 0-.6-1-.8-2.3-.6-1.3.3-5.7-.1-9.8-.7-4-.6-9.1-1.3-11.3-1.5-2.1-.2-4.2-.8-4.6-1.5-.5-.8-1.8-1-3.7-.6-1.6.4-5.9.2-9.5-.4-11.6-1.8-17.1-2.1-17.9-.9-.4.7-.9.4-1.4-1-1-3.2-3.5-2.6-3.5.8zM372.5 143c-.4 1.8-.3 3.5.1 4 1.1.9 20.6 4 21.7 3.3.4-.2.7-1.3.7-2.4 0-1 .5-1.9 1-1.9.6 0 1 1.2 1 2.6 0 2.1.4 2.5 2 2.1 1.1-.3 2.2-.2 2.5.3.3.4 5.1 1.3 10.7 2 5.7.6 11.3 1.7 12.5 2.3 2.7 1.2 3.8.5 2.8-2-.5-1-.7-2.3-.6-2.9 0-.6-.4-1.6-1.1-2.2-1.1-.8-16.8-3.5-28.3-4.7-3-.3-13.8-1.9-20.6-3.1-3.5-.6-3.7-.5-4.4 2.6zM369 143c0 1.1 0 2.3-.1 2.7 0 .4.4.9 1 1.1.6.2 1.1-1 1.1-2.7 0-1.7-.4-3.1-1-3.1-.5 0-1 .9-1 2zM388.8 158.7c-2.4.4-2.8.9-2.8 3.6 0 3.2 0 3.2 6.3 3.5 3.4.1 7.6.4 9.2.5 2.4.2 3.1-.2 3.3-2 .4-2.6-4.3-5.5-7.5-4.7-1.2.3-2.4.1-2.7-.5-.4-.6-1.3-1-1.9-1-.7.1-2.4.4-3.9.6zM406.2 164.6c.3 2.8.5 2.9 9.6 4.3 5.1.7 9.5 1.2 9.7 1 .2-.2.6-1.6 1-3 .7-2.9 1.4-2.7-15.3-4.6-5.4-.6-5.4-.6-5 2.3zM430.2 164.4c-3.7 1.8-2.6 5.8 1.8 6.8 1.9.4 4.1.5 4.8.3 1.5-.6 1.6-5.5 0-5.5-.6 0-1.9-.6-2.7-1.3-1.2-1-2.2-1-3.9-.3zM439.7 165.7c-.4.3-.7 1.8-.7 3.3 0 2.4.5 2.8 5.3 3.8 2.8.6 7.7 1.4 10.7 1.8 3 .3 6 .9 6.5 1.2 1.6 1 11.4 1.2 12 .3 1-1.8-4.4-6.1-7.7-6.1-1.8 0-6-.7-9.3-1.4-3.3-.8-6.3-1.2-6.7-1-.4.3-1.8-.1-3-.8-2.8-1.5-6.2-2.1-7.1-1.1zM636.2 274.7c-5 1-11.4 5.8-16.4 12.5-3.7 4.9-4.1 8.2-.9 8.6 1.3.2 2.7-.2 3.2-.9.4-.7 1.3-1.4 2.1-1.5 8.7-1.5 14-1.9 23.3-1.8 11.7.2 17.9 1.9 29.8 8.1 2.7 1.4 5.1 2.2 5.4 1.9 1.5-1.5-8.3-13.3-14.4-17.5-11.8-8.1-22.5-11.2-32.1-9.4zM616 276.5c-.7.8-1.8 1.5-2.5 1.5s-1.5 1-1.8 2.2c-.7 2.6-.3 3.3 1.5 2.4 4.2-2 10.9-7.6 9.1-7.6-.7 0-1.5.5-1.8 1-.5.8-1.1.8-2 0-.9-.7-1.6-.6-2.5.5zM614.3 284.7c-1.2.2-2.4 1.1-2.7 2-.5 1.1-.2 1.4 1 .9.8-.3 1.9-.6 2.4-.6.4 0 1-.7 1.4-1.5.3-.8.4-1.4.3-1.4-.1.1-1.2.4-2.4.6zM487.4 324.1c-1 1.7 2.3 4.6 3.7 3.2.7-.7.9-1.9.6-2.7-.7-1.8-3.3-2.1-4.3-.5zM268.5 457c-.3.5-1.9 1-3.6 1-1.6 0-2.9.4-2.9.8 0 1.8 1.2 2 3.7.7 1.5-.8 3-1.2 3.5-.9.4.3.8-.2.8-1 0-1.8-.6-2.1-1.5-.6zM308.8 465.7c-1.6.2-2.8.9-2.8 1.4 0 1.2 6 .2 7.5-1.2.9-.9.3-1-4.7-.2zM300.9 467.4c-.2.2-1.7.6-3.4.9-6.2 1-9.2 3.7-4.1 3.7 2.3 0 11.6-3.6 11.6-4.5 0-.6-3.5-.7-4.1-.1zM487.6 478.8c-.3.5-1.6.8-2.8.7-1.3-.1-1.5 0-.5.2.9.2 1.7.9 1.7 1.4 0 1.5 1.7 1 2.4-.7.7-1.9.1-3.1-.8-1.6zM385.8 491.7c1.6.6 1.5 2.8-.3 4.3-.8.7-1.5 2.4-1.4 3.9 0 1.6.3 2 .6 1.1.4-.8 1.3-2 2.1-2.6.8-.6 1.2-1.6.8-2.2-.3-.6-.2-1.4.4-1.7 1.3-.8-.6-3.5-2.4-3.4-.7 0-.6.2.2.6zM380.1 502.6c.1 2.7.4 4 .6 2.9.3-1.1.9-2.5 1.3-3 .5-.6.2-1.9-.6-2.9-1.3-1.8-1.4-1.5-1.3 3zM251.8 500.2c-2.1.6-3.8 1.4-3.8 1.8 0 .4-.9.6-2 .3-2.4-.6-2.7 1.3-.4 3.8 1.7 1.9 5.4 1.4 5.4-.7 0-2.1 2.8-2.8 4.7-1.3.9.8 1.4.9 1 .3-.4-.7 0-1.7.8-2.4 3.5-2.9 1.2-3.6-5.7-1.8zM420 500.3c0 1.3 5.2 11.1 6.2 11.8.5.3.8.8.7 1-.5.6 7.3 13 7.9 12.5.2-.3-.5-1.8-1.7-3.4-1.2-1.7-2.1-3.4-2.1-4 0-.5-1.3-2.8-3-5-1.6-2.3-3-4.4-3-4.6 0-.2-1.1-2.4-2.5-4.7-1.4-2.4-2.5-4-2.5-3.6zM444 504.2c-4.1 1-7.6 2.1-7.9 2.4-1 1 3.5 7.4 5.2 7.4 2.6 0 15.7-4 15.7-4.8 0-1.3-4-7.2-4.7-7.1-.5.1-4.2 1-8.3 2.1zM517.8 503.7c-3.1.5-3.1.5-2.2 2.7.6 1.6 3.9 2.1 6.8 1 1.2-.5 1.3-1 .5-2.5-.5-1-1.3-1.8-1.7-1.8-.4.1-1.9.4-3.4.6zM377 509.3c0 1.2-.7 3.2-1.5 4.3-1.3 2-1.3 2.1 1 1.9 3.9-.5 4.3-1.2 3.1-5-1.2-4-2.6-4.6-2.6-1.2zM519.3 515.6c.3.3.2 1.7-.3 3-.7 1.7-.6 2.4.3 2.5.6 0 .2.4-1 .9-2.7 1.1-2.9 2.3-.8 4 1.7 1.4 5.1.9 4.7-.9-.1-.6-.3-2.3-.4-3.6-.1-1.3-.6-2.1-1-1.9-.4.3-.8-.2-.8-1 0-.9.5-1.6 1-1.6.6 0 1-.5 1-1 0-.6-.7-1-1.7-1-.9 0-1.4.3-1 .6zM526.7 519.3c-2.5 1.8-.6 4 2.6 3.1 3.2-.7 3.4-1.9.8-3.3-1.3-.7-2.3-.7-3.4.2zM527.8 533.1c.3 3.1 0 3.7-2 4.3-2.3.7-2.3.7 0 1.8 1.2.6 2.2 1.5 2.2 2 0 .4.7.8 1.5.8s1.5-.9 1.5-2.1c0-1.1.5-1.7 1-1.4.6.4.5-.5-.2-2-.9-1.9-.9-2.8 0-3.7 1.8-1.8 1.4-2.5-1.6-3-2.6-.4-2.7-.2-2.4 3.3zM355.1 533.8c2.3 1.8 8.9 3.7 8.9 2.6 0-.6-8.8-4.4-10.2-4.4-.6 0 0 .8 1.3 1.8zM440 535.7c0 .3 1.1 2.1 2.5 3.9 1.4 1.8 2.5 3.7 2.5 4.3 0 .6.5 1.1 1 1.1 1.5 0 1.2-.8-2-5.6-3-4.2-4-5.2-4-3.7zM359.3 545c-2.3.5-5.2 1.4-6.5 2.1-2.5 1.3-7.8 6.8-7.8 8.1 0 1.7 2.2.7 4.7-2.2 1.3-1.7 3-3 3.6-3 .7 0 3.9-1.3 7.2-3 6.2-3 6-3.4-1.2-2zM458 564.3c0 .4 1.6 3 3.5 5.8s3.5 4.5 3.5 3.7c0-.8-.7-2.3-1.5-3.3-4-5.3-5.4-6.9-5.5-6.2zM469 580.5c.1 1.8 11 18.1 11 16.4 0-.9-.9-2.8-2-4.2-1.1-1.4-2-3-2-3.5 0-.6-.4-1.2-.8-1.4-.5-.2-2-2.1-3.5-4.3-1.5-2.2-2.7-3.5-2.7-3zM779.1 521.6c-.7.8-1.9 1.3-2.7 1-1.1-.4-1.1.1.2 2.7 1 1.7 1.9 2.6 2.1 1.9.3-.6 1.3-1.2 2.2-1.2 1.4 0 1.8-.8 1.7-3-.1-3.3-1.3-3.8-3.5-1.4zM660 1.6c1.4 1.6 1.3 1.7-.7 1.2-3.8-1-2.7 1.7 2 4.7 2.3 1.6 3.7 2.2 3 1.4-.6-.8-1.3-3-1.5-4.9-.2-2.5-.8-3.6-2.3-3.9-1.7-.3-1.8-.2-.5 1.5zM671.8 2.2c.2 1 .7 1.8 1.1 1.8.8-.1 4.6-3 4-3.1-3.9-.7-5.6-.3-5.1 1.3zM685 .7c0 1.4 1.4 2.9 3.2 3.6 1.6.5 1.6.8.1 3.7-.8 1.7-1.3 3.3-1 3.6.3.3 1.2-.9 2.1-2.6 1.1-2.3 1.3-3.7.6-5.1-.8-1.4-.6-2 .7-2.8 1.5-.8 1.1-1-1.9-1.1-2.1 0-3.8.3-3.8.7zM705.5 1.7c-1 2.7-3.5 18.6-3 19.2.3.2.5-.3.5-1.1 0-.9.7-2.1 1.6-2.9.8-.7 1.3-2 1.1-3-.3-1.1.3-1.9 1.7-2.3 1.7-.5 1.8-.8.6-1.5-1.2-.9-1.3-1.5-.1-4.8.8-2.1 1.9-4.1 2.5-4.5.6-.4-.1-.8-1.5-.8-1.6 0-3 .7-3.4 1.7zM768.7 1.2c.4.7.8 1.5.8 1.8.3 2.4 1.9 5 2.8 4.7 1.5-.5 1-4.6-.8-6.4-1.7-1.7-3.9-1.7-2.8-.1zM832.3 1.9c-1.2 1.8-.9 1.9 4 1.7 3.9-.2 5.3-.7 5.5-1.9.5-2.6-7.9-2.4-9.5.2zM670.1 8c-1.3 1.1-1.8 2-1.1 2 1.8 0 5-2 5-3 0-1.5-1.2-1.1-3.9 1zM742.5 9.9c-.7 1.2 3.1 2.5 4.5 1.6.5-.3 1-1 1-1.6 0-1.2-4.7-1.2-5.5 0zM655 10.7c-2.8 1.1-4 4.3-1.6 4.3.7 0 2.1-1.1 3-2.5 1.7-2.5 1.4-2.8-1.4-1.8zM845 10.9c0 1.1 2.3 1.8 6.3 2 3 .1 3.7-1.5 1-2.2-3.3-.8-7.3-.7-7.3.2zM663.5 16c-1 1.1-2.6 2.2-3.6 2.5-1.1.4-1.9 1.3-1.9 2.1 0 1.7.7 1.8 2.5.1 4.1-3.6 4.5-3.8 6.5-2.7 1.6.9 1.9.8 1.3-.6-.3-.9 0-2 .8-2.5 1-.6.7-.9-1.2-.9-1.4 0-3.4.9-4.4 2zM733.3 21.1c-3 3-.1 5.4 4.5 3.7 1.6-.5 2.2-.4 2.2.7 0 1.7 1.6 2 2.5.5 1.1-1.7-2-3.8-4.7-3.3-1.9.4-2.7 0-3-1.2-.2-1.3-.5-1.4-1.5-.4zM803.7 21.8c-2.6 2.8-2 3.4 1.3 1.7 1.7-.9 2.8-2 2.5-2.5-.9-1.5-2-1.2-3.8.8zM654.6 27c-.9 1.7-1.4 3.5-1 4.1.4.7 1.2-.5 2-2.7 1.6-4.8 1.3-5.2-1-1.4zM808 31.7c0 .6-1.1.8-2.5.5-1.5-.2-2.5 0-2.5.7 0 1.4 4.7 1.5 5.5 0 .4-.6.4-1.3.1-1.6-.3-.4-.6-.2-.6.4zM739.5 37.2c-1 2.9-2.2 5.8-2.7 6.5-.6.7-.6 1.9.1 3 .9 1.6 1 1.6 1.1-.5 0-1.2.7-2.5 1.6-2.9.9-.3 1.4-1.3 1.1-2.3-.2-.9.2-2.8.9-4.1 1.5-2.7 1.8-4.9.6-4.9-.4 0-1.6 2.4-2.7 5.2zM793.9 35.2c-.7 1.8-1.4 3.7-1.7 4.3-.5 1.3 3.6-3.5 4.9-5.8.7-1.3.6-1.7-.5-1.7-.8 0-2 1.5-2.7 3.2zM843 34.5c-.7.9-1 1.8-.7 2.1.7.8 4.7-1.4 4.7-2.6 0-1.5-2.6-1.2-4 .5zM686.4 43.6c.5 3.4.4 4.4-.3 3.4-.5-.8-1.3-1.1-1.7-.8-.3.4.9 1.6 2.7 2.7 3.4 2.1 5.1 1.3 3-1.3-.6-.7-1.2-2.8-1.5-4.6-.2-1.9-.9-3.6-1.6-3.8-1-.4-1.1.7-.6 4.4zM635 45.5c-1.6 2-1 2.6 1.8 1.8 1.2-.3 2.2-1.2 2.2-1.9 0-1.9-2.4-1.8-4 .1zM624.4 47.1c-.3.6 0 1.5.7 2 .8.5 1 .9.4.9-1.5 0-1.2 4.9.3 5.5.7.3 1 0 .7-.5-.3-.6.1-1 .9-1 1.8 0 2.1-1.6.6-2.5-.5-.3-1-1.7-1-3.1 0-2.5-1.4-3.2-2.6-1.3zM809.4 49.4c-1 .8-1.7 1.7-1.4 2 1 1 5-.6 5-2 0-1.8-1.1-1.8-3.6 0zM894.5 50.1c1.7.4 4.4 2.2 6 3.9 1.6 1.6 3.3 3 3.9 3 1.4 0-3.5-5-6.6-6.6-1.5-.8-3.5-1.4-4.5-1.3-1 0-.4.5 1.2 1zM832.5 55c-.4.6 1.2 1 4.2 1 3.5 0 4.4-.3 3.3-1-2-1.3-6.7-1.3-7.5 0zM596 57.7c0 1.5-.2 1.6-1 .3-.5-.8-1-1-1-.5 0 1 4.7 6.5 5.6 6.5.2 0-.1-1-.8-2.3-.7-1.2-1.1-3-.9-4 .1-.9-.3-1.7-.8-1.7-.6 0-1.1.8-1.1 1.7zM897 61.8c0 1.2 6.6 2.1 8.3 1 .7-.5 0-.8-2-.8-1.7 0-3.8-.3-4.7-.6-.9-.3-1.6-.2-1.6.4zM795.5 78c-1.4 1.6-1.5 2-.4 2 1.6 0 3.9-1.9 3.9-3.2 0-1.4-1.6-.9-3.5 1.2zM798 100c0 .6-.8 1-1.7.8-1.3-.2-1.7.6-1.9 3.4-.2 2.1.1 4 .7 4.3.5.4.9-.1.9-.9 0-2.3 1.5-1.9 2.9.6 1.1 2.2 1.1 2.2.4-.2-.4-1.4-.7-4-.6-5.8.1-1.7 0-3.2-.3-3.2-.2 0-.4.5-.4 1zM877.1 114.5c0 .5 2 3.2 4.4 6 2.5 2.7 4.5 4.6 4.5 4.2 0-.4-1.1-2-2.4-3.5-1.3-1.5-3.4-3.8-4.5-5.2-1.1-1.4-2-2.1-2-1.5zM830.1 127.3c.9.7 1.4 1.8 1.2 2.4-.3.7 0 1.3.6 1.3s1.1.7 1.1 1.5.5 1.5 1 1.5c1.8 0 1-3.6-1.3-5.8-1.3-1.2-2.7-2.2-3.3-2.2-.5 0-.2.6.7 1.3zM821.1 138.7c.7 1 1.4 2 1.6 2.2.1.1.6 0 1.2-.3 1.6-1 .1-3.6-2.1-3.6-1.8 0-1.9.2-.7 1.7zM805 157.5c0 .8.5 1.5 1 1.5.6 0 1 .6.9 1.2-.3 1.9 1.3 7.8 2 7.8.3 0 .7-1.8.7-4 .1-2.7.8-4.6 2-5.5 1.1-.8 1.4-1.5.9-1.5-.6 0-1.7.6-2.4 1.2-1 1.1-1.5 1-2.5-.5-1.6-2.1-2.6-2.2-2.6-.2zM797.6 161.5c-.3 2.6-.2 5.4.3 6.2.6 1.1 1-.1 1.5-3.7.4-2.9.3-5.7-.2-6.2s-1.2.9-1.6 3.7zM849.6 163.6c-.3.9-.6 2.5-.6 3.7.1 2.2.1 2.2 1.2.2 1.2-1.9 1.2-1.9 1.9.5.6 2.3.7 2.3.8.3.1-1.2-.3-2.4-.9-2.8-.5-.3-.7-1.2-.3-2 .3-.8.1-1.5-.5-1.5-.5 0-1.3.7-1.6 1.6zM865.5 172c0 2.9.4 4.9 1 4.7 1.5-.5 1.7-6 .3-8-1.1-1.5-1.3-1.1-1.3 3.3zM817.9 170c-.3 2.2-.9 4.8-1.4 6.7-.4 1.7-.1 2.3 1 2.3.9 0 1.4-.4 1.1-.9-.4-.5-.1-2.2.4-3.7.8-1.9.8-3 0-3.8-.5-.5-1-.8-1.1-.6zM806 179.2c.1 2.3 2.6 7.2 3.2 6.3.7-1.4-1.1-7.5-2.2-7.5-.6 0-1 .6-1 1.2zM825 179.6c0 1.6 3.8 5.3 5.5 5.4.7 0 .7-.3 0-.8-.6-.4-1.6-1.9-2.4-3.5-1.6-3-3.1-3.6-3.1-1.1zM822.5 184c-.4.6-.1 1.7.5 2.5.8.9.8 1.5.2 1.5-1.3 0 0 5.2 1.5 5.7 1.7.6 2.1-3.9.6-7.5-1.4-3.4-1.8-3.8-2.8-2.2z"/><g><path d="M804 188.9c0 2.7 1.8 7.1 2.9 7.1.5 0 1.2-.7 1.5-1.6.3-.8.2-1.2-.3-.9-.6.3-1.1-.9-1.3-2.7-.3-3.5-2.8-5.2-2.8-1.9z"/></g><g><path d="M803.3 197.5c-.7 1.2-1.3 1.4-1.7.6-1.1-1.7-2.3-1.3-2.9.9-.3 1.1-1.2 2-2.1 2-1.3 0-1.5.4-.7 1.9.6 1 .8 2.1.4 2.4-.3.4 0 1.3.7 2.2.8 1 1.2 4 1.1 8-.1 3.6.2 6.5.7 6.5.5 0 .7-1.6.6-3.5-.3-3.9 1.1-5.6 1.9-2.3.4 1.2.9 2 1.2 1.7.3-.3.1-1.9-.4-3.5-2.1-6.5-2.2-8.4-.5-8.4 1.2 0 1.5-.8 1.2-3.3-.2-2.5.1-3.2 1.5-3.1 1.9.2 2.1-.4.8-2.5-.7-1.1-1-1-1.8.4z"/></g><g><path d="M810.7 196.7c-.4.3-.7 2.5-.7 4.7.1 4.1.1 4.1 1.7.6 1.6-3.5 1.6-3.5 2.3-1 .7 2.3.8 2.3.9-.8.1-2.2-.3-3.1-1-2.6-.6.3-1.4.1-1.8-.5-.4-.6-1-.8-1.4-.4z"/></g><g><path d="M841 199.1c0 1.4 4.8 6.4 5.5 5.7.2-.2-1-1.9-2.6-3.8-1.8-2.2-2.9-2.9-2.9-1.9z"/></g><g><path d="M858.1 200.9c-.8 1.4-.6 2.5.7 4.2 1 1.3 3.1 4.5 4.6 7.1 1.5 2.7 3.1 4.8 3.7 4.8.6 0 .2-1.2-.9-2.8-3.9-5.5-7.3-12.5-6.8-13.8.8-2.1-.2-1.7-1.3.5z"/></g><g><path d="M884 202.3c0 .8.9 2.5 2 3.8 2 2.4 2 2.4.9-.9-1.2-3.5-2.9-5.2-2.9-2.9z"/></g><g><path d="M790.1 208.6c-.1.7.6 2.7 1.4 4.5.8 2.1 1.4 2.7 1.5 1.6 0-1 .5-1.5 1-1.2.6.3 1 .1 1-.4 0-.6-.7-1.1-1.5-1.1-.9 0-2-1-2.5-2.3-.5-1.2-.9-1.7-.9-1.1z"/></g><g><path d="M878.4 214.4c2.1.7 5.2 1 6.8.8 4-.6 3.3-.9-4.2-1.4-6.1-.5-6.3-.5-2.6.6z"/></g><g><path d="M791 217.7c0 .6.9 2.1 2 3.4 1.5 1.8 1.9 2 2 .8 0-.9-.9-2.4-2-3.4s-2-1.3-2-.8z"/></g><g><path d="M809.1 238.8c-.1 1.2.6 2.5 1.4 2.8.8.4 1.5 1.5 1.5 2.5s.4 1.9.9 1.9c.4 0 .6-1.1.4-2.4-.3-1.3 0-2.7.6-3 1.1-.7 1.5.5 1.2 3.6-.1 1 .3 1.8.8 1.8 1.2 0 1.4-2.9.5-5.4-.4-.9-1.8-1.6-3.4-1.6-1.6 0-3.1-.6-3.3-1.3-.3-.6-.6-.2-.6 1.1z"/></g><g><path d="M827.8 305c-.3 8.9.4 17.6 1.8 22 2.4 7 5.5 9.7 4.6 4-.2-1.7-.9-3-1.4-3-.6 0-.7-1.5-.3-3.8 1.6-9 1.6-10 .6-10.6-.7-.4-1.1.1-1.1 1.3s-.3 2.1-.7 2.1c-.5 0-.9-3.3-1.1-7.2-.3-8.3-2.1-11.8-2.4-4.8z"/></g><g><path d="M841.3 327.9c-.7 2.3-1.2 5.1-1.2 6.3.1 2 .2 2.1.6.3.3-1 1.1-2.8 1.8-4 .7-1.1.9-3 .6-4.3-.5-2-.7-1.8-1.8 1.7z"/></g><g><path d="M112.7 440.7c-1.2 1.1-.8 2.5.5 1.7.7-.4.8-.3.4.5-.6.9-1.1.9-2.4-.1-1.3-1.1-1.4-1.1-1.1.1.7 2.1 2.2 2.3 4.3.8 1.5-1.1 1.6-1.5.3-2.5-.7-.6-1.7-.9-2-.5z"/></g><g><path d="M118.1 444c-3.6 2.2-6.8 4-7.1 4-.4 0-1.2-1.1-1.8-2.5-.6-1.4-1.6-2.5-2.2-2.5-1.9 0-2.3 3-.7 5.3 1.5 2.2 1.4 2.5-1.4 4.1-2.9 1.7-4.9 1.5-4.9-.6 0-.6.3-.8.6-.5.9.9 4.4-1.1 4.4-2.5 0-.6-.9-.8-2.2-.3-1.3.4-3 .7-3.9.7-1.1-.1-1.9 1.1-2.3 3-.7 3.7-.2 4.5 1.9 2.8.8-.7 1.5-.9 1.5-.4-.1.8-14.2 9.8-44.2 28-5.4 3.2-9.7 6.2-9.8 6.7 0 1.7 7.4 11.7 8.8 11.7.9 0 2.4-.8 3.5-1.7 1.8-1.7 1.9-1.7 3.2 0 .7 1 1.1 2.6.8 3.6-.6 2.5 1.5 3.7 3.4 1.9 1.2-1.3 1.2-1.7 0-2.9-1.1-1.2-1.2-1.7-.1-2.7 1.7-1.6 2.4-.3 5.9 11.8 2 6.5 2.9 12.1 3 17.8.2 4.6.7 8.8 1.2 9.3.7.7 5.7-.4 8.2-1.8.1-.1-.6-2.9-1.8-6.2-1.2-3.4-2.1-7-2.1-8 0-3.4-3.1-14.4-5.6-19.7-1.7-3.7-3.4-5.5-6.1-6.9-3-1.5-3.4-1.9-1.9-2.3 1-.2 6.2-3.2 11.5-6.6 5.3-3.4 11.4-7.1 13.6-8.1 2.2-1.1 4.6-2.6 5.3-3.3.7-.6 1.8-1.2 2.5-1.2.6 0 2.2-1.1 3.6-2.4 1.5-1.3 7.8-5.5 14.1-9.4 17.3-10.6 15.9-8.8 12-16-1.8-3.4-3.6-6.2-3.9-6.2-.3.1-3.5 1.9-7 4z"/></g><g><path d="M111 474c0 .5.9 1.2 2 1.5 1.1.3 2 1.3 2 2.2 0 1 .6 1.3 1.6.9.9-.3 2-.6 2.6-.6.5 0 .8-.5.6-1.2-.5-1.3-8.8-4-8.8-2.8z"/></g><g><path d="M105.2 476.9c-1.6 1.7-2.2 2-1.8.8.9-2.8-1.5-1.9-5.1 1.9-3.4 3.7-3.6 5.7-.5 3.7 1-.6 3.9-.9 6.5-.6 3.3.2 5.2-.1 6.2-1.1 1.2-1.2 1.2-1.5-.5-1.9-1.1-.3-2-1-2-1.6 0-.6.7-.8 1.5-.5 2.1.8 1.9-1.3-.2-2.4-1.4-.7-2.4-.3-4.1 1.7z"/></g><g><path d="M15 476.2c-1.9.4-5.3.7-7.5.7-7.9-.3-7.5-.7-7.5 7.8 0 7.5.1 7.7 1.8 5.7.9-1.1 3.1-2.9 4.7-3.9 1.7-1 3.8-2.9 4.8-4.2 1-1.3 2.5-2.3 3.3-2.3.8 0 1.4-.5 1.4-1 0-.6.9-1 2-1 1.9 0 2.8-1.5 1.3-2.3-.5-.2-2.4 0-4.3.5z"/></g><g><path d="M46.5 481.6c-1.4 1-1.6 1.7-.8 2.5 1.5 1.5 4.3.4 4.3-1.5 0-2.2-1.3-2.6-3.5-1z"/></g><g><path d="M147.6 487.2c-1.8 3.8-1.8 4.9-.8 12.1.6 4.4 1.3 8.1 1.4 8.1.2.1 3.2 2.7 6.8 5.8 5.7 4.9 7.3 5.7 11.8 6.2 5.2.5 5.2.5 4.1-1.7-5.2-9.8-20.4-34.8-21.2-34.7-.1 0-1.1 1.9-2.1 4.2z"/></g><g><path d="M103 488.1c-.7 1.1-1.8 1.8-2.5 1.5-.8-.3-1.7-.1-2 .4-.3.5-2 .8-3.8.6-3.4-.4-6.7 1.6-6.7 4.2 0 .7.9 2.6 1.9 4.1 1.6 2.3 2.5 2.6 5.5 2.3 4.9-.6 4.6-2.2-.4-2.2-2.8 0-4-.4-4-1.4 0-.8-.5-1.6-1.2-1.8-2.6-.9.6-2.8 4.6-2.8 2.3 0 4.7-.5 5.4-1.2.9-.9 1.3-.7 1.8.5.3.9 1.3 1.7 2.1 1.7s1.1-.5.8-1c-.3-.6.1-1 1-1 1.3 0 1.4-.3.3-2.3-.7-1.2-1.1-2.5-1-3 .4-1.5-.8-.6-1.8 1.4z"/></g><g><path d="M7.5 493.7c-3.4 3.7-4.3 5.4-2.7 5.2 1.3-.1 9.5-6.4 10-7.7.9-2.7-4.1-1-7.3 2.5z"/></g><g><path d="M87.2 503c-1.7 1.6-2.1 2.7-1.6 4.8.9 3.8 1 3.8 2.9.2 1.5-3 1.7-3.1 3-1.3.7 1 1.6 1.5 1.9 1.2 1-1-.5-3.9-1.9-3.9-.8 0-1.5-.7-1.7-1.6-.2-1.3-.7-1.2-2.6.6z"/></g><g><path d="M142 506.5c-2.2 2.7-.5 3.7 1.9 1.1 1.9-2 2.1-2.6.9-2.6-.9 0-2.1.7-2.8 1.5z"/></g><g><path d="M105.8 510.6c-4.3 3.6-5.8 4.4-7.8 3.8-1.4-.3-3.2-.7-4-.8-2.5-.2-2.3 4.9.5 10.4 2.1 4.1 3.5 5.6 7.1 7.1 4.1 1.8 5.9 3.9 3.3 3.9-.6 0-.1 1.3 1 2.9 2.7 3.8 2.7 4.2-.9 3.5-4-.8-4 1.1.1 7.1 2 2.9 3.4 6.6 3.9 10.3.5 3.1 1.3 7.9 1.9 10.7.5 2.7.6 5.4.1 6-1.2 1.4-4 9.7-4 11.8 0 4.6 11.3 23 13.9 22.5 2.6-.5 6.4-9.6 6.9-16.7.5-6.7-.8-7.7-3-2.3-.6 1.5-1.2 2.2-1.5 1.5-.2-.6.3-2.8 1.1-4.8.9-2.1 1.6-4.8 1.6-6.1 0-1.2.5-3.5 1.2-5.1.6-1.5 1.2-3.9 1.3-5.3.4-4.6 1.6-7.2 3.2-6.6 1.1.4 1.3.1.8-1.4-.4-1.1-.2-2 .3-2 1.6 0 5.4-7.2 4.9-9.2-.3-1-.1-2.1.4-2.4.5-.3.9-1.4.9-2.5 0-1.7-1-2.4-3.2-2-.4 0-.5-.6-.2-1.3.7-1.9 2.7-1.1 5.1 2.2 1.4 1.9 2.2 5.1 2.7 10.5.8 8.7 1.9 12.6 4.3 14.4.9.7 1.7 2.9 2 5 .8 7.4 2.3 11.2 5.4 13.4 1.7 1.1 3.3 1.8 3.6 1.5.4-.3 3.2-5 6.4-10.4 5.5-9.3 5.7-9.8 3.9-11.5-1.1-1.2-3.4-2-6.4-2.1-2.5-.1-5.1-.7-5.8-1.4-.7-.7-2-1.2-3-1.2s-1.8-.3-1.9-.8c-.1-.7-.3-1.9-1.4-7.8-.5-2.7 0-3.6 3.7-7.1 7.6-7.3 7.5-6.6 3.4-14.5-2-3.8-3.6-8.1-3.6-9.3 0-1.3-1.6-4.1-3.5-6.2-3-3.3-3.5-3.5-4.1-1.9-.4 1.1-.2 3.3.4 4.9 1.4 3.7.8 4.6-1.5 2.4-4.6-4.1-10.9-4.2-8.3-.1.8 1.4.9 2.7.1 4.6-.9 2.3-1.5 2.7-4.2 2.3-3.4-.4-5.3-1.5-2.6-1.5 1.5 0 4.4-3.7 3.5-4.5-.2-.2-3 2.6-6.4 6-4.6 4.8-5.7 6.5-4.5 6.8 1.4.4 1.4.5-.1.6-.9 0-1.9-.3-2.2-.8-.3-.4-1.7-.6-3.1-.4-1.3.3-2.2 1-1.9 1.5.4.6-.6.2-2-.7-1.5-1-3.2-2.7-3.8-3.8-.9-1.7-.6-2.4 1.6-4.4 3-2.5 4.7-2.8 7.6-1.3 1.5.8 2.1.6 3-1 .8-1.6.8-2-.3-2-1.8 0-2.7-3-2.7-8.8 0-3.2.3-4.1 1.3-3.6.8.6.8.3-.1-.9-.8-.9-1.1-2-.9-2.5.3-.4-.3-1.3-1.3-2-1.2-.7-2.1-.8-2.5-.2-.4.7-1.3.7-2.5 0-1.5-.8-2.8-.1-7.2 3.6zm40.2 21.7c0 .9-4-.1-5.4-1.3-.4-.5-.5-1.3-.2-1.9.8-1.2 5.5 1.6 5.6 3.2zm-12.3 2.5c.8.5-.2 1.2-2.8 1.9-3.8 1-3.9 1-2.3-.8 1.8-2 3.2-2.3 5.1-1.1z"/></g><g><path d="M30 513.2c-7 3.6-8.4 8.1-5.6 18.6 2.7 9.9 9.3 18.5 18.1 23.3 4 2.2 4 2.2 1.5-.3-1.4-1.3-2.8-2.3-3.1-2.2-.3.2-2.3-1.4-4.3-3.5-3.2-3.3-3.6-4.1-2.6-5.8 2-3.2 5.4-4.2 9.1-2.6 2.9 1.2 3.5 1.1 6.5-.9 6.4-4.4 6.8-10.8 1.4-18.9-6-9.1-13.1-11.7-21-7.7z"/></g><g><path d="M81.3 539.7c-2.8 1.9-2.9 4-.3 7.3 1.1 1.4 2 2.9 2 3.3 0 .4.8 1.9 1.7 3.4 1.7 2.5 1.7 2.5 3-1.2 1.2-3.5 1.1-4.3-1.1-9.2-1.4-2.9-2.6-5.3-2.8-5.2-.2 0-1.3.7-2.5 1.6z"/></g><g><path d="M62.3 557.2c-9.8 8.6-12.8 14.5-12.7 25 0 4.2-.2 7.6-.5 7.5-.4-.1-2.4.6-4.6 1.5-2.2.9-7.1 2.9-11 4.3-3.8 1.4-8.8 3.4-11 4.4-2.2 1-8.2 3.4-13.2 5.2-9.3 3.4-9.3 3.4-9.3 7.7 0 4.1.1 4.2 2.8 3.6 1.5-.4 3.4-1.3 4.3-2 .8-.8 2-1.4 2.6-1.4.6 0 1.3-.6 1.6-1.3.3-.9.9-.8 2.3.4 2.1 1.8 4.4 1.5 4.4-.6 0-.8 1.8-2 4-2.6 5.1-1.5 6.7-3.3 5-5.4-.9-1.1-.9-1.5-.1-1.5.6 0 1.4.7 1.7 1.5.4.8 1.4 1.5 2.3 1.5 1 0 2.8 1.4 4 3.1 1.3 1.8 2 2.9 1.4 2.6-.5-.3-2.8.3-5.2 1.4-2.4 1-4.9 1.9-5.7 1.9-.8 0-1.4.4-1.4.8 0 .6-6.1 3.4-8 3.7-.3 0-.9.3-1.5.6-.5.4-2.7 1.2-4.7 1.8-2.3.8-3.8 1.9-3.8 2.9 0 1.2-.4 1.1-2.3-.6-3.1-2.9-3.7-2.8-3.7.6s6 9.8 8.4 8.9c2.1-.8 2-3.7-.2-5.3-1.6-1.3-1.6-1.3.1-1.4.9 0 2.5-.4 3.5-1 2-1.1 10-3.4 12.3-3.5.9 0 2.6-.8 3.7-1.8s3.7-2 5.8-2.3c3-.3 3.4-.2 1.9.5-1.1.5-1.4 1-.7 1 .8.1 2.7-.8 4.2-1.9 3.3-2.3 7.8-1.9 8.7.9.4.9 1.8 2.7 3.3 4.1 1.5 1.4 2.5 3.1 2.3 3.7-.3.7 0 1.3.6 1.3s1.1-.5 1.1-1.1c0-1.5 5.6 2 10.9 6.8 2.5 2.4 4.9 4.3 5.3 4.3.4 0 3.3 2.5 6.4 5.5 3 3.1 6.9 6.2 8.4 7 1.6.8 3.3 2.1 3.7 2.8.4.8 3.7 3.4 7.3 5.9 3.6 2.5 6.6 5.2 6.8 6 .2.9-5.8 4.1-18.5 9.8-10.3 4.7-17.9 8.6-16.9 8.8 2.5.5 4.2-.2 57.6-24.9 5.2-2.4 8.7-4.5 7.8-4.7-1-.2-4.7 1.1-8.5 2.8-10.4 4.9-10.9 4.8-18-.7-3.4-2.6-6.4-5.3-6.7-6-1.2-2.8 1.5-2 7 2.2 3.3 2.4 6.5 4.5 7.2 4.5 1.4 0 1.6-3.6.2-4.5-1.7-1-1.1-2 1.8-3.1 1.6-.6 3.1-2.1 3.5-3.3.3-1.2.1-1.9-.4-1.5-.6.3-1.5.1-2.2-.4-2-1.6-5.7-2.4-5.7-1.3 0 .6 1.2 1.1 2.6 1.1 1.5 0 2.3.4 1.9 1-.4.6-1.5.8-2.6.5-1.5-.5-1.9-.1-1.9 1.5 0 2-.1 2-2.7.3-2.7-1.8-2.7-1.8-.5-2.1 1.2-.2 2.2-.9 2.2-1.6 0-.9-.9-1.2-2.6-.8-2 .4-2.5.2-1.9-.8.5-.9.4-1.1-.3-.6-1.8 1.1-12.5-.4-14.7-2.1-1.9-1.4-1.9-1.5-.2-2.8 1.8-1.3 1.7-1.4-.2-2-2.2-.7-2.7-2-1.2-2.9.5-.3 2 .4 3.5 1.5 1.4 1.1 2.6 1.6 2.6 1 0-.6-.6-1.1-1.2-1.1-1 0-.9-.3.1-.9.7-.5 1.1-1.3.7-1.9-.3-.5.1-1.2.9-1.6.8-.3 2-1.7 2.7-3.1.6-1.4 1.6-2.5 2.1-2.5 2.1 0 7.6-6.9 8.2-10.2 1.8-9.6-6.5-20.9-15.2-20.8-3.7.1-5.3 1.4-9.5 8-5 7.7-8.2 11.2-12 13-2.9 1.4-3.6 1.4-5.9.1-2.5-1.4-5.9-1-5.9.7 0 1.8 11.8 10.2 13.4 9.6 1.1-.4 1.6 0 1.6 1.4 0 4.7-4.3 3.4-12.5-4-3.3-3-10.2-8.7-15.2-12.7-5.1-4-9.3-8-9.3-8.7 0-1.9.7-1.8 3.7.6 3.3 2.5 5 2.5 5.8 0 .4-1.2 1.6-2.1 3.1-2.2 1.3 0 2.9-.1 3.6-.2.6-.1 1.3.5 1.6 1.2.2.7 0 1.2-.5 1-1.3-.4-8.3 2.3-8.3 3.2 0 1.4 9.4 9 11.1 9 .9 0 1.9-.7 2.3-1.5.3-.8 1.2-1.5 2-1.5 2.1 0 6.6-2.2 6.6-3.2 0-.4-.6-.8-1.4-.8-.8 0-2.7-1.1-4.2-2.4-2.8-2.3-2.8-2.3-.6-4.2 2.6-2.2 2.9-5.9.5-6.9-1.6-.5-1.5-.8.7-2.5 2.5-1.9 2.5-1.9 0-2.9-1.4-.5-1.9-1-1.2-1 .7-.1 1-.6.7-1.1-.4-.6.5-1 2-1s2.4.4 2 1c-.8 1.3.1 1.3 2.5 0 1.4-.7 2.3-.6 3.4.5 1.9 2 2.8 1.9 6-.6 6.2-4.9 8.6-16.3 4.6-22.3-2.8-4.3-8.7-7.6-13.7-7.6-3.5 0-5 .7-9 4.2z"/></g><g><path d="M183.1 565.7c-.6 2.1-1.1 6.1-1.1 8.8 0 2.8-.4 6.5-.9 8.3-.8 2.5-.7 3.2.5 3.2 1 0 1.4-1.3 1.4-4.8.1-2.6.5-7.8 1-11.7 1-7.9.6-9.5-.9-3.8z"/></g><g><path d="M133.2 566.2c-1.8 1.8-1.5 4.2 1.1 9 2.2 4.3 2.2 4.3 2.5.4.2-2.1 0-4.6-.4-5.5-.4-.9-.6-2.4-.5-3.4.3-2-1-2.2-2.7-.5z"/></g><g><path d="M0 589.1c0 2.7.3 3 2.3 2.3 2.9-.9 3-.9 2.2-3.3-.3-1.2-1.5-2.1-2.6-2.1-1.5 0-1.9.7-1.9 3.1z"/></g><g><path d="M215.1 591c-1.9 4-1.6 5.6.8 4 1.2-.7 2.6-8 1.5-8-.2 0-1.2 1.8-2.3 4z"/></g><g><path d="M45.7 623.4c-1 2.6-.9 3.6.7 3.6.7 0 1.6-.9 1.9-2 .3-1.1.1-1.8-.3-1.5-.5.3-1 0-1.2-.7-.3-.7-.7-.5-1.1.6z"/></g><g><path d="M20.5 629c-.9 1.5 1.4 4.3 6.7 7.8 7.8 5.2 9.6 1.9 2.6-4.7-4.1-3.9-8-5.2-9.3-3.1z"/></g><g><path d="M46.7 628.7c-1.6 1.6-.4 4 2.8 5.7 4.2 2.3 4.4 3.2 1 4-1.7.4-2.3 1.1-1.8 1.9.4.7-1.1-.3-3.4-2.1-4.7-3.7-6.8-4-7.6-1.2-.5 2 4.7 7.6 10.7 11.5 2.4 1.6 2.9 1.6 3.7.4 1.4-2.2 1.1-4-.8-5.5-1.6-1.2-1.6-1.3-.2-1.4 2.1 0 8.1-3 7.7-3.9-.4-.9-10.4-10.1-11-10.1-.3 0-.8.3-1.1.7z"/></g><g><path d="M175.5 632.9c.3.5 0 1.3-.6 1.7-.6.3-1.5.1-1.9-.6-.4-.7-1.3-.9-1.9-.6-.6.4-.9 1.2-.6 1.7.4.5-.3.9-1.4.9-1.6 0-8 3.5-10 5.5-.2.3.2 1.2 1 2.1 1.3 1.6 1.2 1.6-.7.6-1.7-.9-2.4-.9-3.2.1-.8.9.2 1.2 4.1 1.4 3.7.2 4.6 0 3.2-.7-1.6-.7-1.4-.9 1.6-.9 1.9-.1 4 .4 4.7 1.1.9.9 1.2.9 1.2 0 0-.7 1.1-1.2 2.5-1.2s2.5.5 2.5 1.2c0 .9.3.9 1.2 0 .8-.8.8-1.5-.3-2.8-1.2-1.5-1.2-1.7.1-1.2 2.3.7 2.5 5.5.3 6.1-1.5.4-1.4.5.3.6 4.9.2 3.3-9.3-1.8-10.7-1.5-.4-1.7-.7-.6-1.3.7-.5 2.2-.6 3.3-.3 1.8.6 1.7.4-.4-1.5-2.6-2.2-3.6-2.7-2.6-1.2z"/></g><g><path d="M14.1 633.9c-.7.5-2.2.6-3.2.4-1-.3-1.9-.1-1.9.4 0 1-.6 1.2-5.5 1.6-5 .4-4.4 3.6 1.6 8.5 5.8 4.7 6.7 5 7.6 2.4.6-1.5 3-3.6 4.3-3.7.3 0 1-.3 1.5-.6.6-.4 2.7-1.2 4.8-1.9 3.7-1.2 3.8-1.3 2.1-3.1-.9-1-2.2-1.9-2.7-1.9s-1.5-.8-2.2-1.7c-1.1-1.5-1.3-1.3-2 1.5-.3 1.7-.3 3.7.1 4.4.6 1 .5 1.1-.8.1-.8-.7-1.8-1-2.2-.6-.4.4-.3-.4.3-1.9.9-2.4.8-2.6-.7-2.1-1.5.6-1.5.5-.3-1 1.5-1.9 1.3-2.1-.8-.8z"/></g><g><path d="M0 646.3c0 4.4 0 4.4 3.5 3.3 1.9-.6 3.5-1.3 3.4-1.6 0-.3-1.6-1.8-3.5-3.3-3.4-2.9-3.4-2.9-3.4 1.6z"/></g><g><path d="M29.4 643.7c-.4 1.4-1.5 1.8-4.7 1.8-5.4-.1-6.7.4-6.7 2.2 0 .9-.6 1.3-1.4 1-.8-.3-2 .1-2.6.9-1 1.1-1 1.4-.1 1.4.7 0 1.9.7 2.7 1.5 1.4 1.3 1.3 1.5-.5 1.5-1.2 0-2.1-.5-2.1-1 0-.6-.7-1-1.5-1s-1.5.4-1.5 1c0 .5-1 1-2.2 1-2.2-.1-2.3-.1-.4-1.5 1.1-.8 1.5-1.5.9-1.5-.7 0-1.4.4-1.7.9-.3.5-2.2 1.2-4.1 1.5-3.5.7-3.5.7-3.5 8.6 0 7.8 0 7.9 2.8 8.3 2.7.4 2.7.4 0 .6-4.5.2-3.7 4.1 1.6 8.5 5 4.1 8.6 4.7 8.6 1.6 0-1.1.5-2 1-2 1.5 0 1.2-2.6-.6-4.1-1.3-1-1.7-1-2.4.1-.5.8-.6 1.9-.2 2.5.3.5-.2.4-1.2-.4-1.2-1-1.4-1.7-.6-2.5.5-.5 1-1.9 1-2.9 0-1.7.2-1.8 1.7-.6 1.3 1.1 1.5 1.1.9.1s-.2-1.3 1.5-1c1.6.2 2.6 1.1 2.9 2.7.6 2.9 4.9 4.5 6.7 2.5.9-.9.9-1.5-.1-2.3-.7-.6-1.5-.9-1.7-.7-.2.2-1-.2-1.7-1-1.1-1.2-.6-1.4 3.1-1.4 3.1 0 4.9.6 6.2 2 2.3 2.6 4.5 2.6 5.2 0 .5-1.8 1.3-2 7.2-1.9 3.6 0 6 .3 5.3.6-.6.2-.9.9-.6 1.5.3.5 0 .9-.7.7-3-.4-3.7.1-3.1 2.3.5 2.2.5 2.2-2.2 0-2.2-1.7-3.2-1.9-4.7-1.1-2.3 1.2-1.5 3.2 2.5 6.6 3.1 2.7 10.2 3.3 9.2.8-.3-.9 0-1.5.7-1.5s2.2-.6 3.2-1.4c1.9-1.4 1.9-1.5 0-3.7-1.9-2.1-1.9-2.2-.1-1.5 1.5.5 1.7.4.7-.8-.9-1.1-.8-1.5.5-2 3.9-1.5 13.4.4 13.4 2.6 0 .5.8.8 1.8.8 1.4-.1 1.3-.4-.7-2-3.1-2.6-.7-2.6 2.6 0 3.7 2.9 6.1 2.5 5.1-.8-.2-.4 2.2-.9 5.2-1.2 5.5-.5 5.5-.5 5.8-8.3.3-7.7.3-7.7-26.4-7.7-22.3 0-26.5-.2-25.5-1.4.6-.7 2.1-1.1 3.4-.9 1.3.3 3.2-.4 4.6-1.6 1.3-1.2 2.2-2.1 2-2.2-.2 0-2-.2-3.9-.4-3.2-.3-3.3-.2-1.5 1.1 1 .8 1.4 1.4.9 1.4-1.6 0-5-2.8-4.2-3.5.9-.9-2.3-4.5-4-4.5-.8 0-1.6.8-1.8 1.7z"/></g><g><path d="M187.5 652.8c-.6 2.3-.1 3.2 3.2 6 2.1 1.8 3.9 3.8 3.9 4.3.1.5.2 1.6.3 2.4 0 .9 1.2 2.6 2.6 3.9 1.3 1.3 3.1 3.4 3.8 4.7 4.6 8.3 5.2 8.9 8.5 8.9 1.7 0 3.2-.3 3.2-.8 0-.4-4.5-6.6-9.9-13.9-7.1-9.4-9.5-13.3-8.5-13.7.8-.3 1.4-1 1.4-1.6 0-1.7-3.1-2.4-4.1-.9-.5.8-.9.9-.9.3 0-2.6-2.8-2.2-3.5.4z"/></g><g><path d="M31 678.4c0 1-1.4 1.8-3.7 2.2-6.7 1.2-7.2 2.3-1.1 2.4 4.7 0 5.6-.3 5.2-1.5-.8-1.9 1-1.9 2.6 0 .7.8 1.9 1.5 2.8 1.5 1.2 0 1.2-.4-.4-2.1-2.8-3.1-5.4-4.3-5.4-2.5z"/></g><g><path d="M119.1 678.7c-3 .8-6.4 2.1-7.5 2.9-1.8 1.2.1 1.4 16.6 1.4 16.8 0 18.8-.2 19.7-1.8.9-1.6 1-1.6 1.6.1.9 2.1 3.1 2.2 3.8.2.4-.8 2.1-1.8 3.9-2.4 3.3-.9 3.3-.9.3-1-1.7-.1-3.5.3-4 .8-.6.6-5.5.5-13-.4-14.3-1.7-14.5-1.7-21.4.2z"/></g></svg>